<svg width="81" height="30" viewBox="0 0 81 30" fill="none" xmlns="http://www.w3.org/2000/svg">
<rect width="81" height="30" rx="15" fill="#034A9A" fill-opacity="0.3"/>
<path fill-rule="evenodd" clip-rule="evenodd" d="M27 25C28.6569 25 30 23.6569 30 22C30 20.3431 28.6569 19 27 19C25.3431 19 24 20.3431 24 22C24 23.6569 25.3431 25 27 25ZM26.4872 21.2778C26.4872 21.4889 26.6306 21.6244 27.0766 21.7556C27.5226 21.8867 28 22.1022 28 22.7333C28 23.1889 27.6955 23.44 27.3124 23.5222V23.7053C27.3124 23.8681 27.1804 24 27.0177 24C26.8549 24 26.723 23.8681 26.723 23.7053V23.5178C26.3458 23.4267 26.0236 23.1533 26 22.6667H26.4322C26.4538 22.9289 26.613 23.1333 27.0177 23.1333C27.4519 23.1333 27.5481 22.8889 27.5481 22.7356C27.5481 22.5289 27.4499 22.3333 26.9587 22.2C26.4106 22.0511 26.0354 21.7956 26.0354 21.2822C26.0354 20.8533 26.3418 20.5733 26.723 20.48V20.2947C26.723 20.1319 26.8549 20 27.0177 20C27.1804 20 27.3124 20.1319 27.3124 20.2947V20.4867C27.723 20.6 27.9293 20.9511 27.943 21.3333H27.5088C27.4971 21.0556 27.3674 20.8667 27.0177 20.8667C26.6857 20.8667 26.4872 21.0356 26.4872 21.2778Z" fill="#034A9A"/>
<path fill-rule="evenodd" clip-rule="evenodd" d="M16 24V22H23C23 19.7909 24.7909 18 27 18C27.7286 18 28.4117 18.1948 29 18.5351V9C29 6.79086 27.2091 5 25 5H18C15.7909 5 14 6.79086 14 9V24H16ZM18 9C17.4477 9 17 9.44772 17 10C17 10.5523 17.4477 11 18 11H25C25.5523 11 26 10.5523 26 10C26 9.44772 25.5523 9 25 9H18ZM17 13.5C17 12.9477 17.4477 12.5 18 12.5H25C25.5523 12.5 26 12.9477 26 13.5C26 14.0523 25.5523 14.5 25 14.5H18C17.4477 14.5 17 14.0523 17 13.5ZM18 16C17.4477 16 17 16.4477 17 17C17 17.5523 17.4477 18 18 18H25C25.5523 18 26 17.5523 26 17C26 16.4477 25.5523 16 25 16H18Z" fill="#034A9A"/>
<path fill-rule="evenodd" clip-rule="evenodd" d="M23.5351 20H20H15H10C10 22.7614 12.2386 25 15 25H24.3542C23.5238 24.2671 23 23.1947 23 22C23 21.2714 23.1948 20.5883 23.5351 20Z" fill="#034A9A"/>
<path d="M43.41 14.33C43.66 13.4 43.66 12.65 43.66 11.93V11.17H37.46V12H42.64C42.64 12.68 42.63 13.33 42.4 14.22L43.41 14.33ZM40.56 18.98C39.22 18.98 38.4 18.65 38.4 18.08C38.4 17.52 39.22 17.19 40.56 17.19C41.89 17.19 42.69 17.52 42.69 18.08C42.69 18.65 41.89 18.98 40.56 18.98ZM40.56 16.4C38.61 16.4 37.38 17.04 37.38 18.08C37.38 19.13 38.61 19.77 40.56 19.77C42.48 19.77 43.72 19.13 43.72 18.08C43.72 17.04 42.48 16.4 40.56 16.4ZM40.76 14.87V13.21H39.72V14.87H36.52V15.7H44.66V14.87H40.76ZM52.6092 14.33C52.8592 13.4 52.8592 12.65 52.8592 11.93V11.17H46.6592V12H51.8392C51.8392 12.68 51.8292 13.33 51.5992 14.22L52.6092 14.33ZM49.7592 18.98C48.4192 18.98 47.5992 18.65 47.5992 18.08C47.5992 17.52 48.4192 17.19 49.7592 17.19C51.0892 17.19 51.8892 17.52 51.8892 18.08C51.8892 18.65 51.0892 18.98 49.7592 18.98ZM49.7592 16.4C47.8092 16.4 46.5792 17.04 46.5792 18.08C46.5792 19.13 47.8092 19.77 49.7592 19.77C51.6792 19.77 52.9192 19.13 52.9192 18.08C52.9192 17.04 51.6792 16.4 49.7592 16.4ZM49.9592 14.87V13.21H48.9192V14.87H45.7192V15.7H53.8592V14.87H49.9592ZM57.8484 15.86C58.1984 15.94 58.5884 15.98 58.9884 15.98C59.3884 15.98 59.7784 15.94 60.1284 15.85V17.82H57.8484V15.86ZM58.9884 12.07C60.3484 12.07 61.2984 12.67 61.2984 13.62C61.2984 14.58 60.3484 15.18 58.9884 15.18C57.6184 15.18 56.6684 14.58 56.6684 13.62C56.6684 12.67 57.6184 12.07 58.9884 12.07ZM61.1584 17.82V15.47C61.8784 15.06 62.3084 14.42 62.3084 13.62C62.3084 12.18 60.9084 11.26 58.9884 11.26C57.0584 11.26 55.6684 12.18 55.6684 13.62C55.6684 14.42 56.0984 15.07 56.8184 15.47V17.82H54.9084V18.66H63.0884V17.82H61.1584ZM66.1077 17.22H70.2577V18.84H66.1077V17.22ZM65.0977 19.66H71.2677V16.4H65.0977V19.66ZM71.0377 14.47C71.2677 13.39 71.2677 12.59 71.2677 11.88V11.18H65.1377V12.02H70.2577C70.2577 12.7 70.2377 13.46 70.0077 14.47H64.1077V15.31H72.2877V14.47H71.0377Z" fill="#034A9A"/>
</svg>
