<svg width="54" height="30" viewBox="0 0 54 30" fill="none" xmlns="http://www.w3.org/2000/svg">
<rect width="54" height="30" rx="15" fill="#034A9A" fill-opacity="0.3"/>
<path fill-rule="evenodd" clip-rule="evenodd" d="M19.3311 5.25671C19.7114 4.91443 20.2887 4.91443 20.669 5.25671L30.669 14.2567C30.9768 14.5337 31.082 14.9717 30.9337 15.3583C30.7853 15.7448 30.4141 16 30 16H27V24C27 24.5523 26.5523 25 26 25H22V17.5C22 17.2239 21.7761 17 21.5 17H18.5C18.2239 17 18 17.2239 18 17.5V25H14C13.4478 25 13 24.5523 13 24V16H10C9.58599 16 9.21476 15.7448 9.06642 15.3583C8.91808 14.9717 9.02331 14.5337 9.33108 14.2567L19.3311 5.25671Z" fill="#034A9A"/>
<path d="M44.22 11.44H41.11V10.63H40.07V11.44H36.91V12.23H44.22V11.44ZM38.5 17.84H42.67V18.89H38.5V17.84ZM37.48 19.66H43.68V17.06H37.48V19.66ZM38.72 13.81C38.72 13.41 39.36 13.23 40.59 13.23C41.81 13.23 42.46 13.41 42.46 13.81C42.46 14.2 41.81 14.39 40.59 14.39C39.36 14.39 38.72 14.2 38.72 13.81ZM41.11 15.66V15.09C42.68 15.01 43.55 14.57 43.55 13.81C43.55 12.96 42.49 12.52 40.59 12.52C38.68 12.52 37.62 12.96 37.62 13.81C37.62 14.57 38.49 15.01 40.07 15.09V15.66H36.5V16.47H44.67V15.66H41.11Z" fill="#034A9A"/>
</svg>
