<svg width="237" height="10" viewBox="0 0 237 10" fill="none" xmlns="http://www.w3.org/2000/svg">
<path d="M0 9.78149V9.27164C1.08307 9.17309 1.20972 9.07026 1.20972 7.85775V2.30506C1.20972 1.07112 1.08307 0.981148 0 0.865467V0.364182H4.41962V0.869751C3.32782 0.981148 3.20117 1.07541 3.20117 2.30934V7.86204C3.20117 9.07455 3.32345 9.17738 4.41962 9.27592V9.78578H0V9.78149Z" fill="#6D6E6B"/>
<path d="M15.7044 0.869751C14.9096 0.912596 14.5952 1.1054 14.5209 1.76949C14.4816 2.22365 14.3943 2.9006 14.3943 4.16881V9.92288H13.6737L7.53774 2.71208H7.4897V5.96401C7.4897 7.24079 7.56831 7.88346 7.60325 8.32048C7.67749 8.95458 7.93079 9.22879 9.03133 9.26735V9.77721H5.41091V9.26735C6.23195 9.21594 6.57259 8.98029 6.63373 8.35476C6.69487 7.88346 6.78658 7.2365 6.78658 5.95973V2.94344C6.78658 1.99657 6.76475 1.73093 6.47651 1.39674C6.20574 1.0497 5.8782 0.929734 5.25806 0.869751V0.364182H7.9832L13.6256 6.72236H13.6824V4.17309C13.6824 2.9006 13.6038 2.22793 13.5689 1.80377C13.4946 1.17823 13.1845 0.929734 12.1015 0.874036V0.364182H15.7132V0.869751H15.7044Z" fill="#6D6E6B"/>
<path d="M25.5351 7.3222C25.343 8.01628 24.9674 9.11311 24.7053 9.62297C24.3167 9.71294 22.9585 10 21.9671 10C18.041 10 16.3945 7.48501 16.3945 5.18424C16.3945 2.22365 18.7266 0.145676 22.2641 0.145676C23.4563 0.145676 24.5525 0.454159 24.9499 0.535564C25.0853 1.33676 25.1726 1.99658 25.2905 2.92203L24.7359 3.02057C24.2555 1.28963 23.12 0.784065 21.9802 0.784065C19.8359 0.784065 18.6655 2.78064 18.6655 4.91003C18.6655 7.5707 20.111 9.32305 22.1243 9.32305C23.3515 9.32305 24.2686 8.55613 25.011 7.09083L25.5351 7.3222Z" fill="#6D6E6B"/>
<path d="M36.7893 0.869751C35.6276 0.981148 35.5403 1.05398 35.5403 2.2922V7.86204C35.5403 9.07027 35.6626 9.17309 36.7893 9.27164V9.78149H32.278V9.27164C33.4659 9.17309 33.575 9.07027 33.575 7.85776V5.15853H29.5397V7.85776C29.5397 9.07027 29.6576 9.17309 30.7538 9.27164V9.78149H26.3517V9.27164C27.4216 9.17309 27.557 9.07455 27.557 7.85776V2.2922C27.557 1.05398 27.4216 0.981148 26.2905 0.869751V0.364182H30.7189V0.869751C29.6576 0.981148 29.5354 1.05398 29.5354 2.2922V4.42588H33.5707V2.2922C33.5707 1.05398 33.4528 0.981148 32.3566 0.869751V0.364182H36.7937V0.869751H36.7893Z" fill="#6D6E6B"/>
<path d="M45.7641 7.38218C45.6811 8.02913 45.3667 9.34876 45.2488 9.78578H37.7153V9.27592C38.9775 9.17738 39.1085 9.07883 39.1085 7.86204V2.2922C39.1085 1.02399 38.9731 0.955441 37.9162 0.869751V0.364182H44.8688C44.8863 0.621251 44.9605 1.63668 45.0261 2.52785L44.4889 2.60925C44.3535 2.0994 44.1526 1.62811 43.8862 1.36675C43.646 1.1054 43.2399 0.994002 42.4101 0.994002H41.7113C41.1611 0.994002 41.0999 1.02399 41.0999 1.50814V4.57584H42.0913C43.3228 4.57584 43.5237 4.51157 43.729 3.48758H44.2574V6.41388H43.729C43.5237 5.37703 43.3403 5.32134 42.0913 5.32134H41.0999V7.82348C41.0999 8.50043 41.1611 8.86461 41.4537 9.01457C41.7201 9.12168 42.2179 9.15167 42.7769 9.15167C43.5368 9.15167 44.0653 9.04884 44.4277 8.68895C44.7116 8.36761 44.9693 7.90488 45.2532 7.27935L45.7641 7.38218Z" fill="#6D6E6B"/>
<path d="M51.7253 0.162811C54.4068 0.162811 56.6035 2.0994 56.6035 4.97429C56.6035 8.0934 54.3151 10 51.5463 10C48.5853 10 46.5327 7.86204 46.5327 5.08141C46.5327 2.59212 48.3233 0.162811 51.7122 0.162811H51.7253ZM51.4415 0.758355C49.9653 0.758355 48.7993 2.30934 48.7993 4.82005C48.7993 7.28363 49.9129 9.38732 51.7996 9.38732C53.2146 9.38732 54.3413 8.0377 54.3413 5.38132C54.3413 2.50214 53.1403 0.758355 51.4502 0.758355H51.4415Z" fill="#6D6E6B"/>
<path d="M67.7137 0.869751C66.9276 0.912596 66.6045 1.1054 66.539 1.76949C66.4997 2.22365 66.4167 2.9006 66.4167 4.16881V9.92288H65.7005L59.5602 2.71208H59.5121V5.96401C59.5121 7.24079 59.582 7.88346 59.6388 8.32048C59.7086 8.95458 59.9576 9.22879 61.0537 9.26735V9.77721H57.4333V9.26735C58.2587 9.21594 58.5994 8.98029 58.6605 8.35476C58.7173 7.88346 58.8134 7.2365 58.8134 5.95973V2.94344C58.8134 1.99657 58.7741 1.73093 58.4946 1.39674C58.2369 1.0497 57.8875 0.929734 57.2717 0.869751V0.364182H60.0056L65.6437 6.72236H65.7048V4.17309C65.7048 2.9006 65.6131 2.22793 65.5825 1.80377C65.5127 1.17823 65.1982 0.929734 64.1239 0.874036V0.364182H67.7181V0.869751H67.7137Z" fill="#6D6E6B"/>
<path d="M81.8547 0.869751C81.0512 0.912596 80.7455 1.1054 80.6712 1.76949C80.6232 2.22365 80.5315 2.9006 80.5315 4.16881V9.92288H79.8371L73.6881 2.71208H73.64V5.96401C73.64 7.24079 73.7099 7.88346 73.7623 8.32048C73.8365 8.95458 74.0811 9.22879 75.1729 9.26735V9.77721H71.5569V9.26735C72.3823 9.21594 72.7316 8.98029 72.784 8.35476C72.8408 7.88346 72.9369 7.2365 72.9369 5.95973V2.94344C72.9369 1.99657 72.9107 1.73093 72.6224 1.39674C72.3517 1.0497 72.0154 0.929734 71.3953 0.869751V0.364182H74.1291L79.7759 6.72236H79.8371V4.17309C79.8371 2.9006 79.741 2.22793 79.7104 1.80377C79.6493 1.17823 79.3305 0.929734 78.2562 0.874036V0.364182H81.8547V0.869751Z" fill="#6D6E6B"/>
<path d="M87.3313 9.78149V9.27164C88.2047 9.14311 88.279 8.9803 88.0388 8.32905C87.8903 7.89632 87.6676 7.28364 87.4448 6.68809H84.6062C84.4446 7.14653 84.2611 7.66067 84.0777 8.25193C83.8768 8.93745 83.8943 9.14311 84.9774 9.27164V9.78149H81.6714L81.6845 9.27164C82.6671 9.15596 82.8462 9.006 83.3266 7.78492L86.353 0.334193L87.1086 0.145676C88.0432 2.69495 88.9603 5.20137 89.9211 7.69495C90.4233 8.98029 90.6242 9.16024 91.5457 9.27164V9.78149H87.3313ZM86.0735 2.80206H86.0299C85.6194 3.85176 85.2525 4.90574 84.8682 5.92974H87.1653L86.0735 2.80206Z" fill="#6D6E6B"/>
<path d="M99.3192 2.84919C99.1445 2.09083 98.9436 1.61525 98.6728 1.34961C98.4195 1.09255 98.044 0.994002 97.1705 0.994002H96.5023V7.85776C96.5023 9.07027 96.6377 9.17309 97.9479 9.27164V9.78149H93.1352V9.27164C94.3799 9.17309 94.5284 9.07455 94.5284 7.85776V0.994002H94.0218C92.812 0.994002 92.5369 1.15681 92.3229 1.39246C92.0871 1.63668 91.8906 2.12939 91.7028 2.85347H91.1787C91.2355 1.79949 91.3185 0.741217 91.3534 0H91.7028C91.9342 0.33419 92.1308 0.364182 92.5369 0.364182H98.4807C98.8912 0.364182 99.0834 0.282776 99.3323 0H99.7035C99.7035 0.608398 99.7821 1.88518 99.852 2.81063L99.3192 2.84919Z" fill="#6D6E6B"/>
<path d="M100.787 9.78149V9.27164C101.874 9.17309 102.005 9.07026 102.005 7.85775V2.30506C102.005 1.07112 101.874 0.981148 100.787 0.865467V0.364182H105.206V0.869751C104.114 0.981148 103.988 1.07541 103.988 2.30934V7.86204C103.988 9.07455 104.114 9.17738 105.206 9.27592V9.78578H100.787V9.78149Z" fill="#6D6E6B"/>
<path d="M111.469 0.162811C114.15 0.162811 116.356 2.0994 116.356 4.97429C116.356 8.0934 114.054 10 111.277 10C108.333 10 106.276 7.86204 106.276 5.08141C106.276 2.59212 108.071 0.162811 111.46 0.162811H111.469ZM111.176 0.758355C109.696 0.758355 108.53 2.30934 108.53 4.82005C108.53 7.28363 109.661 9.38732 111.552 9.38732C112.954 9.38732 114.093 8.0377 114.093 5.38132C114.093 2.50214 112.888 0.758355 111.189 0.758355H111.176Z" fill="#6D6E6B"/>
<path d="M127.466 0.869751C126.667 0.912596 126.357 1.1054 126.287 1.76949C126.234 2.22365 126.143 2.9006 126.143 4.16881V9.92288H125.435L119.295 2.71208H119.255V5.96401C119.255 7.24079 119.317 7.88346 119.373 8.32048C119.439 8.95458 119.692 9.22879 120.784 9.26735V9.77721H117.164V9.26735C117.998 9.21594 118.338 8.98029 118.395 8.35476C118.452 7.88346 118.544 7.2365 118.544 5.95973V2.94344C118.544 1.99657 118.513 1.73093 118.229 1.39674C117.963 1.0497 117.622 0.929734 117.006 0.869751V0.364182H119.736L125.378 6.72236H125.431V4.17309C125.431 2.9006 125.343 2.22793 125.317 1.80377C125.247 1.17823 124.937 0.929734 123.858 0.874036V0.364182H127.461V0.869751H127.466Z" fill="#6D6E6B"/>
<path d="M132.942 9.78149V9.27164C133.803 9.14311 133.886 8.9803 133.65 8.32905C133.51 7.89632 133.279 7.28364 133.06 6.68809H130.222C130.064 7.14653 129.881 7.66067 129.702 8.25193C129.488 8.93745 129.519 9.14311 130.606 9.27164V9.78149H127.291L127.304 9.27164C128.283 9.15596 128.466 9.006 128.942 7.78492L131.977 0.334193L132.728 0.145676C133.676 2.69495 134.589 5.20137 135.558 7.69495C136.056 8.98029 136.253 9.16024 137.174 9.27164V9.78149H132.942ZM131.68 2.80206H131.632C131.226 3.85176 130.846 4.90574 130.466 5.92974H132.772L131.68 2.80206Z" fill="#6D6E6B"/>
<path d="M145.542 7.32648C145.419 7.93488 145.105 9.38732 144.987 9.78149H137.807V9.27164C139.091 9.17309 139.231 9.07027 139.231 7.85776V2.30506C139.231 1.05398 139.087 0.981148 137.96 0.865467V0.364182H142.476V0.869751C141.345 0.981148 141.214 1.05398 141.214 2.30934V7.9563C141.214 8.63325 141.266 8.89889 141.585 9.02314C141.834 9.12596 142.236 9.15596 142.694 9.15596C143.306 9.15596 143.843 9.05313 144.201 8.67181C144.48 8.36332 144.734 7.89632 145.022 7.17652L145.542 7.32648Z" fill="#6D6E6B"/>
<path d="M159.469 0.869751C158.665 0.912596 158.303 1.22108 158.22 1.73093C158.141 2.16795 158.089 2.71208 158.089 3.74036V5.32562C158.089 6.85947 157.853 8.07626 157.028 8.94173C156.346 9.63582 155.337 10 154.289 10C153.324 10 152.39 9.79863 151.682 9.24164C150.844 8.60754 150.455 7.53213 150.455 5.83976V2.44216C150.455 1.07541 150.306 0.985433 149.219 0.869751V0.364182H153.66V0.869751C152.577 0.981148 152.438 1.07541 152.438 2.44216V5.58269C152.438 7.75493 153.237 9.02314 154.822 9.02314C156.582 9.02314 157.351 7.71208 157.351 5.29563V3.73608C157.351 2.71208 157.268 2.1551 157.198 1.72665C157.128 1.2168 156.779 0.921165 155.774 0.865467V0.364182H159.46V0.869751H159.469Z" fill="#6D6E6B"/>
<path d="M170.238 0.869751C169.452 0.912596 169.138 1.1054 169.059 1.76949C169.016 2.22365 168.924 2.9006 168.924 4.16881V9.92288H168.212L162.067 2.71208H162.032V5.96401C162.032 7.24079 162.107 7.88346 162.146 8.32048C162.22 8.95458 162.473 9.22879 163.565 9.26735V9.77721H159.954V9.26735C160.77 9.21594 161.115 8.98029 161.176 8.35476C161.237 7.88346 161.312 7.2365 161.312 5.95973V2.94344C161.312 1.99657 161.29 1.73093 161.006 1.39674C160.744 1.0497 160.399 0.929734 159.783 0.869751V0.364182H162.517L168.155 6.72236H168.212V4.17309C168.212 2.9006 168.125 2.22793 168.09 1.80377C168.02 1.17823 167.705 0.929734 166.635 0.874036V0.364182H170.234V0.869751H170.238Z" fill="#6D6E6B"/>
<path d="M171.038 9.78149V9.27164C172.134 9.17309 172.269 9.07026 172.269 7.85775V2.30506C172.269 1.07112 172.134 0.981148 171.038 0.865467V0.364182H175.47V0.869751C174.379 0.981148 174.247 1.07541 174.247 2.30934V7.86204C174.247 9.07455 174.379 9.17738 175.47 9.27592V9.78578H171.038V9.78149Z" fill="#6D6E6B"/>
<path d="M186.428 0.891174C185.476 0.989717 185.196 1.17395 184.615 2.54927C184.113 3.65895 182.781 6.9623 181.624 9.93573H180.881C179.886 7.28363 178.506 3.80463 177.877 2.30506C177.431 1.17395 177.187 0.981148 176.283 0.891174V0.364182H180.681V0.891174C179.606 1.0497 179.606 1.20394 179.829 1.82091C180.253 2.99057 181.427 5.92973 181.956 7.28363H181.995C182.812 5.17138 183.445 3.51328 183.86 2.24507C184.183 1.22965 184.183 1.02399 182.978 0.891174V0.364182H186.432V0.891174H186.428Z" fill="#6D6E6B"/>
<path d="M194.992 7.38218C194.905 8.02913 194.586 9.34876 194.477 9.78578H186.943V9.27592C188.201 9.17738 188.341 9.07883 188.341 7.86204V2.2922C188.341 1.02399 188.197 0.955441 187.148 0.869751V0.364182H194.101C194.118 0.621251 194.193 1.63668 194.254 2.52785L193.721 2.60925C193.573 2.0994 193.38 1.62811 193.114 1.36675C192.861 1.1054 192.463 0.994002 191.642 0.994002H190.935C190.389 0.994002 190.323 1.02399 190.323 1.50814V4.57584H191.323C192.555 4.57584 192.747 4.51157 192.957 3.48758H193.485V6.41388H192.957C192.743 5.37703 192.568 5.32134 191.323 5.32134H190.323V7.82348C190.323 8.50043 190.389 8.86461 190.677 9.01457C190.948 9.12168 191.45 9.15167 192.009 9.15167C192.765 9.15167 193.297 9.04884 193.651 8.68895C193.935 8.36761 194.197 7.90488 194.485 7.27935L194.992 7.38218Z" fill="#6D6E6B"/>
<path d="M204.796 9.91431C204.705 9.91431 204.526 9.90146 204.355 9.90146C202.49 9.82005 201.914 9.40874 201.329 8.49614C200.94 7.89631 200.547 7.11225 200.106 6.37104C199.87 5.9126 199.608 5.75407 199.136 5.72408H198.861V7.84062C198.861 9.02314 199.005 9.17309 200.106 9.27164V9.78149H195.651V9.27164C196.761 9.17309 196.922 9.02314 196.922 7.84062V2.27506C196.922 1.11825 196.782 0.981148 195.708 0.865467V0.364182H199.857C201.145 0.364182 201.896 0.497001 202.49 0.908312C203.08 1.28535 203.491 1.94087 203.491 2.8449C203.491 4.11739 202.639 4.79863 201.643 5.19709C201.853 5.62982 202.416 6.58955 202.844 7.25364C203.377 8.05484 203.687 8.51757 203.988 8.81748C204.307 9.15167 204.539 9.32734 204.879 9.44302L204.796 9.91431ZM199.241 5.15853C199.853 5.15853 200.355 5.0557 200.678 4.77292C201.189 4.36161 201.386 3.7832 201.386 3.04627C201.386 1.51242 200.477 0.938303 199.656 0.938303C199.285 0.938303 199.08 0.998286 198.984 1.09683C198.879 1.17823 198.857 1.32391 198.857 1.63239V5.16281H199.241V5.15853Z" fill="#6D6E6B"/>
<path d="M210.889 2.72493C210.578 1.81662 210.037 0.741213 208.827 0.741213C207.997 0.741213 207.386 1.34961 207.386 2.16795C207.386 2.96058 207.923 3.43616 209.225 4.06598C210.766 4.82005 211.836 5.62982 211.836 7.05655C211.836 8.69751 210.404 9.99571 208.246 9.99571C207.722 9.99571 207.203 9.92288 206.766 9.79434C206.342 9.68294 206.067 9.56298 205.853 9.46872C205.722 9.10882 205.539 7.88774 205.434 7.00942L205.945 6.85518C206.246 7.78063 207.115 9.40445 208.535 9.40445C209.43 9.40445 210.002 8.79605 210.002 7.88346C210.002 7.02656 209.356 6.491 208.246 5.90402C206.731 5.14995 205.678 4.37018 205.678 2.982C205.678 1.38817 206.967 0.1371 209.072 0.1371C210.006 0.1371 210.84 0.424161 211.12 0.526989C211.177 1.06683 211.282 1.70094 211.399 2.60068L210.889 2.72493Z" fill="#6D6E6B"/>
<path d="M212.701 9.78149V9.27164C213.788 9.17309 213.91 9.07026 213.91 7.85775V2.30506C213.91 1.07112 213.788 0.981148 212.701 0.865467V0.364182H217.125V0.869751C216.033 0.981148 215.897 1.07541 215.897 2.30934V7.86204C215.897 9.07455 216.028 9.17738 217.125 9.27592V9.78578H212.701V9.78149Z" fill="#6D6E6B"/>
<path d="M226.279 2.84919C226.1 2.09083 225.89 1.61525 225.624 1.34961C225.37 1.09255 224.986 0.994002 224.139 0.994002H223.466V7.85776C223.466 9.07027 223.606 9.17309 224.903 9.27164V9.78149H220.095V9.27164C221.322 9.17309 221.479 9.07455 221.479 7.85776V0.994002H220.977C219.763 0.994002 219.501 1.15681 219.278 1.39246C219.042 1.63668 218.846 2.12939 218.658 2.85347H218.129C218.191 1.79949 218.274 0.741217 218.308 0H218.662C218.902 0.33419 219.095 0.364182 219.505 0.364182H225.436C225.842 0.364182 226.047 0.282776 226.296 0H226.659C226.667 0.608398 226.737 1.88518 226.816 2.81063L226.279 2.84919Z" fill="#6D6E6B"/>
<path d="M237 0.869751C236.052 0.981148 235.747 1.22965 235.227 2.09083C234.685 2.94344 234.292 3.56898 233.576 4.93145C233.371 5.32562 233.305 5.48843 233.305 5.92973V7.78492C233.305 9.07455 233.423 9.17309 234.733 9.28449V9.78149H229.938V9.28449C231.192 9.18595 231.314 9.07027 231.314 7.78492V6.16967C231.314 5.81834 231.257 5.66838 231.135 5.3856C230.733 4.59297 230.174 3.62896 229.301 2.0994C228.746 1.14824 228.501 0.989717 227.68 0.869751V0.364182H231.917V0.869751C230.943 0.994002 230.951 1.19109 231.218 1.70951C231.742 2.71208 232.323 3.7832 232.899 4.85433C233.323 4.03171 234.083 2.66924 234.436 1.79092C234.681 1.20394 234.664 1.01114 233.572 0.869751V0.364182H236.996V0.869751H237Z" fill="#6D6E6B"/>
</svg>
