<svg width="24" height="24" viewBox="0 0 24 24" fill="none" xmlns="http://www.w3.org/2000/svg">
<path fill-rule="evenodd" clip-rule="evenodd" d="M12.669 2.25671C12.2887 1.91443 11.7114 1.91443 11.3311 2.25671L1.33108 11.2567C1.02331 11.5337 0.918082 11.9717 1.06642 12.3583C1.21476 12.7448 1.58599 13 2.00004 13H5.00004V21C5.00004 21.5523 5.44776 22 6.00004 22H10V20H7.00004V12C7.00004 11.4477 6.55233 11 6.00004 11H4.606L12 4.34536L19.3941 11H18C17.4478 11 17 11.4477 17 12V20H14V22H18C18.5523 22 19 21.5523 19 21V13H22C22.4141 13 22.7853 12.7448 22.9337 12.3583C23.082 11.9717 22.9768 11.5337 22.669 11.2567L12.669 2.25671Z" fill="#B3B3B3"/>
<path d="M10 22V14H14V22" stroke="#B3B3B3" stroke-width="2" stroke-linejoin="round"/>
</svg>
