<svg width="96" height="30" viewBox="0 0 96 30" fill="none" xmlns="http://www.w3.org/2000/svg">
<rect width="96" height="30" rx="15" fill="#034A9A" fill-opacity="0.3"/>
<path fill-rule="evenodd" clip-rule="evenodd" d="M24.5 25C27.5376 25 30 22.5376 30 19.5C30 16.4624 27.5376 14 24.5 14C21.4624 14 19 16.4624 19 19.5C19 22.5376 21.4624 25 24.5 25ZM21 18.5C20.4477 18.5 20 18.9477 20 19.5C20 20.0523 20.4477 20.5 21 20.5H28C28.5523 20.5 29 20.0523 29 19.5C29 18.9477 28.5523 18.5 28 18.5H21Z" fill="#034A9A"/>
<path fill-rule="evenodd" clip-rule="evenodd" d="M15.5 16C18.5376 16 21 13.5376 21 10.5C21 7.46243 18.5376 5 15.5 5C12.4624 5 10 7.46243 10 10.5C10 13.5376 12.4624 16 15.5 16ZM15.5 6C16.0523 6 16.5 6.44772 16.5 7V9.5H19C19.5523 9.5 20 9.94772 20 10.5C20 11.0523 19.5523 11.5 19 11.5H16.5V14C16.5 14.5523 16.0523 15 15.5 15C14.9477 15 14.5 14.5523 14.5 14V11.5H12C11.4477 11.5 11 11.0523 11 10.5C11 9.94772 11.4477 9.5 12 9.5H14.5V7C14.5 6.44772 14.9477 6 15.5 6Z" fill="#034A9A"/>
<path d="M41.76 14.87C40.42 14.43 39.65 13.33 39.65 12.17V11.2H38.61V12.09C38.61 13.39 37.84 14.62 36.42 15.11L36.97 15.93C38.01 15.55 38.75 14.77 39.15 13.79C39.53 14.64 40.25 15.33 41.22 15.68L41.76 14.87ZM40.65 18.96C39.39 18.96 38.66 18.65 38.66 18.07C38.66 17.51 39.39 17.19 40.65 17.19C41.91 17.19 42.64 17.51 42.64 18.07C42.64 18.65 41.91 18.96 40.65 18.96ZM40.65 16.38C38.79 16.38 37.64 17.01 37.64 18.07C37.64 19.14 38.79 19.77 40.65 19.77C42.52 19.77 43.66 19.14 43.66 18.07C43.66 17.01 42.52 16.38 40.65 16.38ZM43.56 12.97V10.73H42.53V16.16H43.56V13.82H44.84V12.97H43.56ZM48.0392 16.14C48.4692 16.14 48.8092 15.79 48.8092 15.33C48.8092 14.86 48.4692 14.52 48.0392 14.52C47.6092 14.52 47.2692 14.86 47.2692 15.33C47.2692 15.79 47.6092 16.14 48.0392 16.14ZM55.0114 14.27H52.8814V13.11H55.0114V14.27ZM56.0214 13.5H57.8914V15.4H58.9314V10.74H57.8914V12.67H56.0214V11.14H55.0114V12.31H52.8814V11.14H51.8614V15.09H56.0214V13.5ZM54.0814 18.85V18.07H58.9314V15.8H53.0514V16.6H57.9114V17.32H53.0614V19.66H59.2314V18.85H54.0814ZM66.0106 14.96C64.6706 14.49 63.9006 13.36 63.9006 12.24V12.09H65.7806V11.26H60.9506V12.09H62.8606V12.24C62.8606 13.47 62.0406 14.66 60.6406 15.15L61.1706 15.96C62.2406 15.59 63.0006 14.8 63.4006 13.83C63.7806 14.71 64.5106 15.41 65.5106 15.76L66.0106 14.96ZM63.2106 17.22H67.1206V18.84H63.2106V17.22ZM62.2006 19.66H68.1306V16.4H62.2006V19.66ZM67.1006 10.73V12.93H65.5006V13.77H67.1006V15.99H68.1306V10.73H67.1006ZM70.6298 16.06C72.0898 15.78 73.3498 14.92 73.9298 13.76C74.5198 14.91 75.7898 15.75 77.2798 16.03L77.6998 15.21C75.9098 14.93 74.4698 13.71 74.4698 12.35V12.33H77.3398V11.5H70.5198V12.33H73.3898V12.35C73.3898 13.71 71.9598 14.96 70.1998 15.24L70.6298 16.06ZM74.4598 17.82V15.71H73.4198V17.82H69.8498V18.66H78.0298V17.82H74.4598ZM84.7391 11.79H82.5291V10.76H81.4991V11.79H79.2791V12.62H84.7391V11.79ZM80.7891 14.74C80.7891 14.19 81.2891 13.85 82.0191 13.85C82.7391 13.85 83.2391 14.19 83.2391 14.74C83.2391 15.3 82.7391 15.64 82.0191 15.64C81.2891 15.64 80.7891 15.3 80.7891 14.74ZM82.5291 16.39C83.5491 16.23 84.2191 15.62 84.2191 14.74C84.2191 13.73 83.3191 13.06 82.0191 13.06C80.7091 13.06 79.8091 13.73 79.8091 14.74C79.8091 15.61 80.4791 16.23 81.4991 16.39V17.27C80.6491 17.3 79.8191 17.3 79.0991 17.3L79.2291 18.15C80.8691 18.15 83.0091 18.12 84.9991 17.78L84.9291 17.03C84.1591 17.14 83.3391 17.19 82.5291 17.24V16.39ZM85.4391 10.73V19.77H86.4791V10.73H85.4391Z" fill="#034A9A"/>
</svg>
