<svg width="24" height="24" viewBox="0 0 24 24" fill="none" xmlns="http://www.w3.org/2000/svg">
<path fill-rule="evenodd" clip-rule="evenodd" d="M19 22C20.6569 22 22 20.6569 22 19C22 17.3431 20.6569 16 19 16C17.3431 16 16 17.3431 16 19C16 20.6569 17.3431 22 19 22ZM18.4872 18.2778C18.4872 18.4889 18.6306 18.6244 19.0766 18.7556C19.5226 18.8867 20 19.1022 20 19.7333C20 20.1889 19.6955 20.44 19.3124 20.5222V20.7053C19.3124 20.8681 19.1804 21 19.0177 21C18.8549 21 18.723 20.8681 18.723 20.7053V20.5178C18.3458 20.4267 18.0236 20.1533 18 19.6667H18.4322C18.4538 19.9289 18.613 20.1333 19.0177 20.1333C19.4519 20.1333 19.5481 19.8889 19.5481 19.7356C19.5481 19.5289 19.4499 19.3333 18.9587 19.2C18.4106 19.0511 18.0354 18.7956 18.0354 18.2822C18.0354 17.8533 18.3418 17.5733 18.723 17.48V17.2947C18.723 17.1319 18.8549 17 19.0177 17C19.1804 17 19.3124 17.1319 19.3124 17.2947V17.4867C19.723 17.6 19.9293 17.9511 19.943 18.3333H19.5088C19.4971 18.0556 19.3674 17.8667 19.0177 17.8667C18.6857 17.8667 18.4872 18.0356 18.4872 18.2778Z" fill="#B3B3B3"/>
<path fill-rule="evenodd" clip-rule="evenodd" d="M8 6C8 4.89543 8.89543 4 10 4H17C18.1046 4 19 4.89543 19 6V15C19.7286 15 20.4117 15.1948 21 15.5351V6C21 3.79086 19.2091 2 17 2H10C7.79086 2 6 3.79086 6 6V21H8V6Z" fill="#B3B3B3"/>
<rect x="9" y="6" width="9" height="2" rx="1" fill="#B3B3B3"/>
<rect x="9" y="9.5" width="9" height="2" rx="1" fill="#B3B3B3"/>
<rect x="9" y="13" width="9" height="2" rx="1" fill="#B3B3B3"/>
<path fill-rule="evenodd" clip-rule="evenodd" d="M15.5351 17H12H7H2C2 19.7614 4.23858 22 7 22H16.3542C15.5238 21.2671 15 20.1947 15 19C15 18.2714 15.1948 17.5883 15.5351 17Z" fill="#B3B3B3"/>
</svg>
