<svg width="97" height="12" viewBox="0 0 97 12" fill="none" xmlns="http://www.w3.org/2000/svg">
<path d="M5.4195 0.679999C6.62483 0.679999 7.6755 0.882666 8.5715 1.288C9.47817 1.68267 10.1768 2.25867 10.6675 3.016C11.1688 3.77333 11.4195 4.68533 11.4195 5.752C11.4195 6.66933 11.2595 7.464 10.9395 8.136C10.6302 8.79733 10.1928 9.34667 9.6275 9.784C9.07283 10.2107 8.42217 10.5307 7.6755 10.744C6.9395 10.9467 6.15017 11.048 5.3075 11.048C5.22217 11.048 5.0995 11.048 4.9395 11.048C4.79017 11.048 4.60883 11.048 4.3955 11.048C4.09683 11.048 3.76083 11.048 3.3875 11.048C3.02483 11.048 2.66217 11.048 2.2995 11.048C1.9475 11.048 1.63283 11.048 1.3555 11.048C1.08883 11.048 0.896833 11.048 0.7795 11.048C0.7475 10.9947 0.726167 10.8987 0.7155 10.76C0.7155 10.6213 0.736833 10.5253 0.7795 10.472C0.854167 10.4613 0.966167 10.4507 1.1155 10.44C1.26483 10.4187 1.40883 10.392 1.5475 10.36C1.68617 10.3173 1.76617 10.264 1.7875 10.2C1.8515 10.04 1.88883 9.83733 1.8995 9.592C1.91017 9.34667 1.9155 9.05867 1.9155 8.728V2.984C1.9155 2.64267 1.91017 2.35467 1.8995 2.12C1.88883 1.87467 1.8515 1.672 1.7875 1.512C1.76617 1.43733 1.68617 1.384 1.5475 1.352C1.40883 1.32 1.26483 1.29867 1.1155 1.288C0.966167 1.27733 0.854167 1.272 0.7795 1.272C0.736833 1.21867 0.7155 1.11733 0.7155 0.967999C0.726167 0.818666 0.7475 0.722666 0.7795 0.679999C1.1315 0.701333 1.51017 0.717333 1.9155 0.728C2.32083 0.728 2.68883 0.728 3.0195 0.728C3.35017 0.728 3.71817 0.722666 4.1235 0.712C4.52883 0.701333 4.96083 0.690666 5.4195 0.679999ZM4.1075 2.456V8.792C4.1075 8.792 4.1075 8.80267 4.1075 8.824C4.1075 8.87733 4.1075 8.984 4.1075 9.144C4.1075 9.29333 4.11283 9.45333 4.1235 9.624C4.14483 9.79467 4.17683 9.928 4.2195 10.024C4.27283 10.1307 4.40083 10.2213 4.6035 10.296C4.80617 10.36 5.00883 10.392 5.2115 10.392C6.48083 10.392 7.41417 10.0293 8.0115 9.304C8.6195 8.568 8.9235 7.44267 8.9235 5.928C8.9235 4.904 8.75283 4.05067 8.4115 3.368C8.07017 2.68533 7.60083 2.17333 7.0035 1.832C6.41683 1.49067 5.73417 1.32 4.9555 1.32C4.78483 1.32 4.6195 1.33067 4.4595 1.352C4.31017 1.36267 4.21417 1.41067 4.1715 1.496C4.1395 1.58133 4.11817 1.688 4.1075 1.816C4.1075 1.944 4.1075 2.09333 4.1075 2.264C4.1075 2.296 4.1075 2.328 4.1075 2.36C4.1075 2.392 4.1075 2.424 4.1075 2.456ZM18.0141 0.584C18.7075 0.584 19.3688 0.722666 19.9981 1C20.6381 1.26667 21.2035 1.64533 21.6941 2.136C22.1955 2.616 22.5901 3.176 22.8781 3.816C23.1768 4.456 23.3261 5.144 23.3261 5.88C23.3261 6.616 23.1768 7.304 22.8781 7.944C22.5901 8.57333 22.1955 9.13333 21.6941 9.624C21.2035 10.104 20.6381 10.4827 19.9981 10.76C19.3688 11.0267 18.7075 11.16 18.0141 11.16C17.3315 11.16 16.6701 11.0267 16.0301 10.76C15.3901 10.4827 14.8195 10.104 14.3181 9.624C13.8275 9.13333 13.4328 8.57333 13.1341 7.944C12.8461 7.304 12.7021 6.616 12.7021 5.88C12.7021 5.144 12.8461 4.456 13.1341 3.816C13.4328 3.176 13.8275 2.616 14.3181 2.136C14.8195 1.64533 15.3901 1.26667 16.0301 1C16.6701 0.722666 17.3315 0.584 18.0141 0.584ZM17.6461 1.256C17.1875 1.256 16.7981 1.37867 16.4781 1.624C16.1688 1.86933 15.9181 2.19467 15.7261 2.6C15.5448 2.99467 15.4115 3.432 15.3261 3.912C15.2408 4.392 15.1981 4.86667 15.1981 5.336C15.1981 5.93333 15.2515 6.536 15.3581 7.144C15.4755 7.74133 15.6568 8.296 15.9021 8.808C16.1475 9.30933 16.4675 9.71467 16.8621 10.024C17.2675 10.3333 17.7635 10.488 18.3501 10.488C18.8195 10.488 19.2088 10.3707 19.5181 10.136C19.8381 9.89067 20.0941 9.57067 20.2861 9.176C20.4781 8.78133 20.6168 8.344 20.7021 7.864C20.7875 7.384 20.8301 6.90933 20.8301 6.44C20.8301 5.84267 20.7715 5.24 20.6541 4.632C20.5475 4.024 20.3661 3.464 20.1101 2.952C19.8648 2.44 19.5395 2.02933 19.1341 1.72C18.7288 1.41067 18.2328 1.256 17.6461 1.256ZM29.0605 0.679999C29.7112 0.679999 30.2925 0.786666 30.8045 1C31.3165 1.21333 31.7218 1.53333 32.0205 1.96C32.3192 2.376 32.4685 2.89867 32.4685 3.528C32.4685 3.848 32.3938 4.152 32.2445 4.44C32.1058 4.71733 31.9245 4.97333 31.7005 5.208C31.4765 5.432 31.2418 5.61867 30.9965 5.768C30.7618 5.90667 30.5485 6.00267 30.3565 6.056C30.7405 6.568 31.1032 7.048 31.4445 7.496C31.7858 7.93333 32.0632 8.29067 32.2765 8.568C32.5005 8.83467 32.6125 8.968 32.6125 8.968C32.9965 9.45867 33.3805 9.81067 33.7645 10.024C34.1485 10.2373 34.4738 10.3707 34.7405 10.424C35.0072 10.4667 35.1618 10.488 35.2045 10.488C35.2472 10.5413 35.2578 10.648 35.2365 10.808C35.2258 10.9573 35.2152 11.0427 35.2045 11.064C34.9805 11.0747 34.6605 11.0853 34.2445 11.096C33.8392 11.1173 33.4765 11.128 33.1565 11.128C32.5592 11.128 32.0578 11 31.6525 10.744C31.2578 10.488 30.9645 10.2267 30.7725 9.96L28.2445 6.568C28.2445 6.568 28.2125 6.53067 28.1485 6.456C28.0845 6.37067 28.0205 6.328 27.9565 6.328H27.7325V8.728C27.7325 8.76 27.7325 8.79733 27.7325 8.84C27.7325 8.872 27.7325 8.904 27.7325 8.936C27.7325 9.21333 27.7378 9.45867 27.7485 9.672C27.7592 9.88533 27.7912 10.0613 27.8445 10.2C27.8765 10.264 27.9565 10.3173 28.0845 10.36C28.2232 10.4027 28.3672 10.4347 28.5165 10.456C28.6765 10.4667 28.7885 10.4773 28.8525 10.488C28.8952 10.5413 28.9112 10.6373 28.9005 10.776C28.9005 10.9147 28.8845 11.0107 28.8525 11.064C28.5538 11.032 28.1858 11.0053 27.7485 10.984C27.3218 10.9627 26.9432 10.952 26.6125 10.952C26.2818 10.952 25.9085 10.9627 25.4925 10.984C25.0765 11.0053 24.7138 11.032 24.4045 11.064C24.3725 11.0107 24.3512 10.9147 24.3405 10.776C24.3405 10.6373 24.3618 10.5413 24.4045 10.488C24.4792 10.4773 24.5912 10.4667 24.7405 10.456C24.8898 10.4347 25.0338 10.4027 25.1725 10.36C25.3112 10.3173 25.3912 10.264 25.4125 10.2C25.4765 10.04 25.5138 9.83733 25.5245 9.592C25.5352 9.34667 25.5405 9.05867 25.5405 8.728V2.984C25.5405 2.64267 25.5352 2.35467 25.5245 2.12C25.5138 1.87467 25.4765 1.672 25.4125 1.512C25.3912 1.43733 25.3112 1.384 25.1725 1.352C25.0338 1.32 24.8898 1.29867 24.7405 1.288C24.5912 1.27733 24.4792 1.272 24.4045 1.272C24.3618 1.21867 24.3405 1.11733 24.3405 0.967999C24.3512 0.818666 24.3725 0.722666 24.4045 0.679999C24.7565 0.701333 25.1352 0.717333 25.5405 0.728C25.9458 0.728 26.3138 0.728 26.6445 0.728C26.9752 0.728 27.3432 0.722666 27.7485 0.712C28.1645 0.690666 28.6018 0.679999 29.0605 0.679999ZM30.1485 3.688C30.1485 3.272 30.1058 2.888 30.0205 2.536C29.9352 2.17333 29.7805 1.88 29.5565 1.656C29.3325 1.432 29.0072 1.32 28.5805 1.32C28.4098 1.32 28.2445 1.33067 28.0845 1.352C27.9352 1.36267 27.8392 1.41067 27.7965 1.496C27.7645 1.58133 27.7432 1.688 27.7325 1.816C27.7325 1.944 27.7325 2.09333 27.7325 2.264C27.7325 2.296 27.7325 2.328 27.7325 2.36C27.7325 2.392 27.7325 2.424 27.7325 2.456V5.72H28.4365C28.7352 5.72 29.0125 5.63467 29.2685 5.464C29.5352 5.29333 29.7485 5.05333 29.9085 4.744C30.0685 4.43467 30.1485 4.08267 30.1485 3.688ZM37.297 0.743999C37.5637 0.743999 37.825 0.733333 38.081 0.712C38.3477 0.690666 38.6357 0.674666 38.945 0.664C39.0623 0.909333 39.2223 1.26667 39.425 1.736C39.6383 2.20533 39.8783 2.744 40.145 3.352C40.4117 3.96 40.6943 4.60533 40.993 5.288C41.3023 5.96 41.601 6.62667 41.889 7.288C41.889 7.288 41.8943 7.29333 41.905 7.304C41.9263 7.31467 41.9423 7.32 41.953 7.32C41.9637 7.32 41.9743 7.30933 41.985 7.288C42.0063 7.256 42.017 7.23467 42.017 7.224C42.017 7.224 42.081 7.06933 42.209 6.76C42.337 6.44 42.497 6.03467 42.689 5.544C42.881 5.05333 43.0783 4.536 43.281 3.992C43.4943 3.448 43.6863 2.94133 43.857 2.472C43.9423 2.248 44.0223 2.00267 44.097 1.736C44.1823 1.45867 44.2517 1.21867 44.305 1.016C44.3583 0.813333 44.385 0.712 44.385 0.712C44.4383 0.712 44.577 0.717333 44.801 0.728C45.0357 0.738666 45.281 0.749333 45.537 0.759999C45.793 0.759999 45.969 0.759999 46.065 0.759999C46.3317 0.759999 46.625 0.749333 46.945 0.728C47.265 0.695999 47.5797 0.674666 47.889 0.664C47.921 0.696 47.9477 0.786667 47.969 0.936C48.001 1.08533 47.9957 1.192 47.953 1.256C47.889 1.256 47.7557 1.272 47.553 1.304C47.361 1.32533 47.2223 1.36267 47.137 1.416C47.0623 1.46933 47.0037 1.53867 46.961 1.624C46.929 1.69867 46.9183 1.84267 46.929 2.056C46.9397 2.32267 46.9503 2.72267 46.961 3.256C46.9823 3.77867 47.0037 4.36 47.025 5C47.0463 5.64 47.0677 6.28 47.089 6.92C47.1103 7.56 47.1317 8.13067 47.153 8.632C47.1743 8.93067 47.1957 9.21867 47.217 9.496C47.2383 9.76267 47.2863 9.99733 47.361 10.2C47.393 10.2747 47.4783 10.3333 47.617 10.376C47.7663 10.4187 47.9157 10.4507 48.065 10.472C48.2143 10.4827 48.3103 10.488 48.353 10.488C48.4383 10.6693 48.449 10.8613 48.385 11.064C48.0757 11.0427 47.729 11.016 47.345 10.984C46.961 10.952 46.5983 10.936 46.257 10.936C45.8943 10.936 45.4837 10.952 45.025 10.984C44.5663 11.016 44.1557 11.0427 43.793 11.064C43.761 11.032 43.7397 10.9467 43.729 10.808C43.729 10.6587 43.7397 10.552 43.761 10.488C43.825 10.488 43.937 10.4773 44.097 10.456C44.257 10.4347 44.4117 10.4027 44.561 10.36C44.721 10.3173 44.8223 10.2587 44.865 10.184C44.9077 10.12 44.9397 10.0347 44.961 9.928C44.9823 9.81067 44.993 9.71467 44.993 9.64C44.993 9.55467 44.993 9.41067 44.993 9.208C44.993 8.99467 44.9877 8.81867 44.977 8.68L44.817 3.24C44.817 3.21867 44.8117 3.144 44.801 3.016C44.7903 2.888 44.7583 2.824 44.705 2.824C44.6837 2.824 44.657 2.86133 44.625 2.936L41.873 10.376C41.8623 10.4187 41.8197 10.4933 41.745 10.6C41.6703 10.7067 41.585 10.808 41.489 10.904C41.393 10.9893 41.297 11.032 41.201 11.032C41.169 11.032 41.121 11.0213 41.057 11L37.585 2.824C37.5637 3.47467 37.5423 4.02933 37.521 4.488C37.5103 4.936 37.4997 5.33067 37.489 5.672C37.4783 6.00267 37.4677 6.32267 37.457 6.632C37.4463 6.94133 37.4357 7.27733 37.425 7.64C37.4143 7.992 37.3983 8.41333 37.377 8.904C37.3663 9.07467 37.3717 9.288 37.393 9.544C37.4143 9.78933 37.4303 9.93867 37.441 9.992C37.4623 10.0773 37.537 10.152 37.665 10.216C37.793 10.28 37.937 10.3333 38.097 10.376C38.2677 10.408 38.417 10.4347 38.545 10.456C38.6837 10.4773 38.769 10.488 38.801 10.488C38.8223 10.5413 38.8383 10.632 38.849 10.76C38.8597 10.8773 38.8543 10.9787 38.833 11.064C38.5237 11.0427 38.209 11.016 37.889 10.984C37.569 10.952 37.2383 10.936 36.897 10.936C36.5343 10.936 36.209 10.952 35.921 10.984C35.633 11.016 35.3077 11.0427 34.945 11.064C34.913 11.0107 34.897 10.9253 34.897 10.808C34.897 10.68 34.9077 10.5787 34.929 10.504C34.993 10.504 35.121 10.488 35.313 10.456C35.505 10.4133 35.697 10.3493 35.889 10.264C36.081 10.1787 36.2037 10.072 36.257 9.944C36.2783 9.89067 36.2997 9.77333 36.321 9.592C36.353 9.4 36.3797 9.20267 36.401 9C36.4223 8.79733 36.433 8.65333 36.433 8.568C36.4543 8.20533 36.4757 7.768 36.497 7.256C36.5183 6.744 36.5397 6.21067 36.561 5.656C36.5823 5.10133 36.6037 4.568 36.625 4.056C36.6463 3.544 36.6623 3.10133 36.673 2.728C36.6837 2.344 36.6943 2.07733 36.705 1.928C36.705 1.87467 36.6997 1.816 36.689 1.752C36.689 1.688 36.6677 1.62933 36.625 1.576C36.561 1.49067 36.4117 1.416 36.177 1.352C35.9423 1.27733 35.7557 1.24 35.617 1.24C35.5743 1.176 35.5583 1.06933 35.569 0.919999C35.5903 0.759999 35.6063 0.674666 35.617 0.664C35.8623 0.674666 36.0597 0.685333 36.209 0.695999C36.369 0.706666 36.529 0.717333 36.689 0.728C36.8597 0.738666 37.0623 0.743999 37.297 0.743999ZM51.6133 0.759999C51.9439 0.759999 52.3173 0.754666 52.7333 0.743999C53.1599 0.722666 53.5226 0.696 53.8213 0.664C53.8533 0.706666 53.8693 0.802666 53.8693 0.952C53.8799 1.09067 53.8639 1.18667 53.8213 1.24C53.7573 1.24 53.6453 1.25067 53.4852 1.272C53.3359 1.28267 53.1919 1.30933 53.0533 1.352C52.9253 1.384 52.8453 1.43733 52.8133 1.512C52.7599 1.65067 52.7279 1.82667 52.7173 2.04C52.7066 2.25333 52.7013 2.49867 52.7013 2.776C52.7013 2.808 52.7013 2.84533 52.7013 2.888C52.7013 2.92 52.7013 2.952 52.7013 2.984V8.728C52.7013 8.76 52.7013 8.79733 52.7013 8.84C52.7013 8.872 52.7013 8.904 52.7013 8.936C52.7013 9.21333 52.7066 9.45867 52.7173 9.672C52.7279 9.88533 52.7599 10.0613 52.8133 10.2C52.8453 10.264 52.9253 10.3173 53.0533 10.36C53.1919 10.4027 53.3359 10.4347 53.4852 10.456C53.6453 10.4667 53.7573 10.4773 53.8213 10.488C53.8639 10.5413 53.8799 10.6373 53.8693 10.776C53.8693 10.9147 53.8533 11.0107 53.8213 11.064C53.5226 11.032 53.1546 11.0053 52.7173 10.984C52.2906 10.9627 51.9119 10.952 51.5813 10.952C51.2506 10.952 50.8773 10.9627 50.4613 10.984C50.0453 11.0053 49.6826 11.032 49.3733 11.064C49.3413 11.0107 49.3199 10.9147 49.3092 10.776C49.3092 10.6373 49.3306 10.5413 49.3733 10.488C49.4479 10.4773 49.5599 10.4667 49.7093 10.456C49.8586 10.4347 50.0026 10.4027 50.1413 10.36C50.2799 10.3173 50.3599 10.264 50.3813 10.2C50.4453 10.04 50.4826 9.83733 50.4933 9.592C50.5039 9.34667 50.5093 9.05867 50.5093 8.728V2.984C50.5093 2.64267 50.5039 2.35467 50.4933 2.12C50.4826 1.87467 50.4453 1.672 50.3813 1.512C50.3599 1.43733 50.2799 1.384 50.1413 1.352C50.0026 1.30933 49.8586 1.28267 49.7093 1.272C49.5599 1.25067 49.4479 1.24 49.3733 1.24C49.3306 1.18667 49.3092 1.09067 49.3092 0.952C49.3199 0.802666 49.3413 0.706666 49.3733 0.664C49.6826 0.696 50.0506 0.722666 50.4773 0.743999C50.9039 0.754666 51.2826 0.759999 51.6133 0.759999ZM61.9426 0.728C62.316 0.728 62.5986 0.706666 62.7906 0.664C62.9933 0.610666 63.148 0.562666 63.2546 0.52C63.3613 0.466666 63.4626 0.44 63.5586 0.44C63.6226 0.44 63.66 0.445333 63.6706 0.455999C63.692 0.455999 63.7186 0.466666 63.7506 0.488L64.1666 3.352C64.1453 3.37333 64.0813 3.4 63.9746 3.432C63.8786 3.45333 63.7933 3.464 63.7186 3.464C63.6226 3.464 63.5693 3.43733 63.5586 3.384C63.5053 3.04267 63.3986 2.72267 63.2386 2.424C63.0786 2.12533 62.8813 1.88533 62.6466 1.704C62.412 1.512 62.1613 1.416 61.8946 1.416H60.4386V8.728C60.4386 9.05867 60.444 9.34667 60.4546 9.592C60.4653 9.83733 60.5026 10.04 60.5666 10.2C60.5986 10.264 60.6786 10.3173 60.8066 10.36C60.9453 10.4027 61.0893 10.4347 61.2386 10.456C61.388 10.4667 61.4946 10.4773 61.5586 10.488C61.6013 10.5413 61.6173 10.6373 61.6066 10.776C61.6066 10.9147 61.5906 11.0107 61.5586 11.064C61.26 11.032 60.8973 11.0053 60.4706 10.984C60.044 10.9627 59.6653 10.952 59.3346 10.952C59.004 10.952 58.6306 10.9627 58.2146 10.984C57.7986 11.0053 57.436 11.032 57.1266 11.064C57.0946 11.0107 57.0733 10.9147 57.0626 10.776C57.0626 10.6373 57.084 10.5413 57.1266 10.488C57.2013 10.4773 57.308 10.4667 57.4466 10.456C57.596 10.4347 57.74 10.4027 57.8786 10.36C58.0173 10.3173 58.0973 10.264 58.1186 10.2C58.1826 10.04 58.22 9.83733 58.2306 9.592C58.2413 9.34667 58.2466 9.05867 58.2466 8.728V1.416H56.7906C56.524 1.416 56.2733 1.512 56.0386 1.704C55.804 1.88533 55.6066 2.12533 55.4466 2.424C55.2866 2.72267 55.18 3.04267 55.1266 3.384C55.116 3.43733 55.0626 3.464 54.9666 3.464C54.892 3.464 54.8013 3.45333 54.6946 3.432C54.5986 3.4 54.54 3.37333 54.5186 3.352L54.9346 0.488C54.9666 0.466666 54.988 0.455999 54.9986 0.455999C55.02 0.445333 55.0626 0.44 55.1266 0.44C55.2226 0.44 55.324 0.466666 55.4306 0.52C55.5373 0.562666 55.6866 0.610666 55.8786 0.664C56.0813 0.706666 56.3693 0.728 56.7426 0.728H61.9426ZM70.1548 0.584C70.8481 0.584 71.5094 0.722666 72.1388 1C72.7788 1.26667 73.3441 1.64533 73.8348 2.136C74.3361 2.616 74.7308 3.176 75.0188 3.816C75.3174 4.456 75.4668 5.144 75.4668 5.88C75.4668 6.616 75.3174 7.304 75.0188 7.944C74.7308 8.57333 74.3361 9.13333 73.8348 9.624C73.3441 10.104 72.7788 10.4827 72.1388 10.76C71.5094 11.0267 70.8481 11.16 70.1548 11.16C69.4721 11.16 68.8108 11.0267 68.1708 10.76C67.5308 10.4827 66.9601 10.104 66.4588 9.624C65.9681 9.13333 65.5734 8.57333 65.2747 7.944C64.9868 7.304 64.8428 6.616 64.8428 5.88C64.8428 5.144 64.9868 4.456 65.2747 3.816C65.5734 3.176 65.9681 2.616 66.4588 2.136C66.9601 1.64533 67.5308 1.26667 68.1708 1C68.8108 0.722666 69.4721 0.584 70.1548 0.584ZM69.7868 1.256C69.3281 1.256 68.9388 1.37867 68.6188 1.624C68.3094 1.86933 68.0588 2.19467 67.8668 2.6C67.6854 2.99467 67.5521 3.432 67.4668 3.912C67.3814 4.392 67.3388 4.86667 67.3388 5.336C67.3388 5.93333 67.3921 6.536 67.4988 7.144C67.6161 7.74133 67.7974 8.296 68.0428 8.808C68.2881 9.30933 68.6081 9.71467 69.0028 10.024C69.4081 10.3333 69.9041 10.488 70.4908 10.488C70.9601 10.488 71.3494 10.3707 71.6588 10.136C71.9788 9.89067 72.2348 9.57067 72.4268 9.176C72.6188 8.78133 72.7574 8.344 72.8428 7.864C72.9281 7.384 72.9708 6.90933 72.9708 6.44C72.9708 5.84267 72.9121 5.24 72.7948 4.632C72.6881 4.024 72.5068 3.464 72.2508 2.952C72.0054 2.44 71.6801 2.02933 71.2748 1.72C70.8694 1.41067 70.3734 1.256 69.7868 1.256ZM81.2011 0.679999C81.8518 0.679999 82.4331 0.786666 82.9451 1C83.4571 1.21333 83.8625 1.53333 84.1611 1.96C84.4598 2.376 84.6091 2.89867 84.6091 3.528C84.6091 3.848 84.5345 4.152 84.3851 4.44C84.2465 4.71733 84.0651 4.97333 83.8411 5.208C83.6171 5.432 83.3825 5.61867 83.1371 5.768C82.9025 5.90667 82.6891 6.00267 82.4971 6.056C82.8811 6.568 83.2438 7.048 83.5851 7.496C83.9265 7.93333 84.2038 8.29067 84.4171 8.568C84.6411 8.83467 84.7531 8.968 84.7531 8.968C85.1371 9.45867 85.5211 9.81067 85.9051 10.024C86.2891 10.2373 86.6145 10.3707 86.8811 10.424C87.1478 10.4667 87.3025 10.488 87.3451 10.488C87.3878 10.5413 87.3985 10.648 87.3771 10.808C87.3665 10.9573 87.3558 11.0427 87.3451 11.064C87.1211 11.0747 86.8011 11.0853 86.3851 11.096C85.9798 11.1173 85.6171 11.128 85.2971 11.128C84.6998 11.128 84.1985 11 83.7931 10.744C83.3985 10.488 83.1051 10.2267 82.9131 9.96L80.3851 6.568C80.3851 6.568 80.3531 6.53067 80.2891 6.456C80.2251 6.37067 80.1611 6.328 80.0971 6.328H79.8731V8.728C79.8731 8.76 79.8731 8.79733 79.8731 8.84C79.8731 8.872 79.8731 8.904 79.8731 8.936C79.8731 9.21333 79.8785 9.45867 79.8891 9.672C79.8998 9.88533 79.9318 10.0613 79.9851 10.2C80.0171 10.264 80.0971 10.3173 80.2251 10.36C80.3638 10.4027 80.5078 10.4347 80.6571 10.456C80.8171 10.4667 80.9291 10.4773 80.9931 10.488C81.0358 10.5413 81.0518 10.6373 81.0411 10.776C81.0411 10.9147 81.0251 11.0107 80.9931 11.064C80.6945 11.032 80.3265 11.0053 79.8891 10.984C79.4625 10.9627 79.0838 10.952 78.7531 10.952C78.4225 10.952 78.0491 10.9627 77.6331 10.984C77.2171 11.0053 76.8545 11.032 76.5451 11.064C76.5131 11.0107 76.4918 10.9147 76.4811 10.776C76.4811 10.6373 76.5025 10.5413 76.5451 10.488C76.6198 10.4773 76.7318 10.4667 76.8811 10.456C77.0305 10.4347 77.1745 10.4027 77.3131 10.36C77.4518 10.3173 77.5318 10.264 77.5531 10.2C77.6171 10.04 77.6545 9.83733 77.6651 9.592C77.6758 9.34667 77.6811 9.05867 77.6811 8.728V2.984C77.6811 2.64267 77.6758 2.35467 77.6651 2.12C77.6545 1.87467 77.6171 1.672 77.5531 1.512C77.5318 1.43733 77.4518 1.384 77.3131 1.352C77.1745 1.32 77.0305 1.29867 76.8811 1.288C76.7318 1.27733 76.6198 1.272 76.5451 1.272C76.5025 1.21867 76.4811 1.11733 76.4811 0.967999C76.4918 0.818666 76.5131 0.722666 76.5451 0.679999C76.8971 0.701333 77.2758 0.717333 77.6811 0.728C78.0865 0.728 78.4545 0.728 78.7851 0.728C79.1158 0.728 79.4838 0.722666 79.8891 0.712C80.3051 0.690666 80.7425 0.679999 81.2011 0.679999ZM82.2891 3.688C82.2891 3.272 82.2465 2.888 82.1611 2.536C82.0758 2.17333 81.9211 1.88 81.6971 1.656C81.4731 1.432 81.1478 1.32 80.7211 1.32C80.5505 1.32 80.3851 1.33067 80.2251 1.352C80.0758 1.36267 79.9798 1.41067 79.9371 1.496C79.9051 1.58133 79.8838 1.688 79.8731 1.816C79.8731 1.944 79.8731 2.09333 79.8731 2.264C79.8731 2.296 79.8731 2.328 79.8731 2.36C79.8731 2.392 79.8731 2.424 79.8731 2.456V5.72H80.5771C80.8758 5.72 81.1531 5.63467 81.4091 5.464C81.6758 5.29333 81.8891 5.05333 82.0491 4.744C82.2091 4.43467 82.2891 4.08267 82.2891 3.688ZM89.7105 8.728V6.568C89.7105 6.48267 89.6785 6.376 89.6145 6.248C89.5292 6.07733 89.4065 5.848 89.2465 5.56C89.0972 5.26133 88.9318 4.94667 88.7505 4.616C88.5692 4.27467 88.3932 3.95467 88.2225 3.656C88.0625 3.34667 87.9292 3.096 87.8225 2.904C87.7158 2.712 87.6625 2.616 87.6625 2.616C87.5452 2.40267 87.4598 2.248 87.4065 2.152C87.3532 2.04533 87.2785 1.912 87.1825 1.752C87.0652 1.56 86.8838 1.432 86.6385 1.368C86.3932 1.29333 86.2172 1.25067 86.1105 1.24C86.0678 1.18667 86.0518 1.09067 86.0625 0.952C86.0625 0.802666 86.0785 0.706666 86.1105 0.664C86.4198 0.696 86.7878 0.722666 87.2145 0.743999C87.6412 0.754666 88.0198 0.759999 88.3505 0.759999C88.6812 0.759999 89.0545 0.754666 89.4705 0.743999C89.8972 0.722666 90.2598 0.696 90.5585 0.664C90.5905 0.706666 90.6065 0.802666 90.6065 0.952C90.6172 1.09067 90.6012 1.18667 90.5585 1.24C90.4945 1.24 90.3825 1.25067 90.2225 1.272C90.0732 1.28267 89.9292 1.32 89.7905 1.384C89.6625 1.43733 89.5985 1.528 89.5985 1.656C89.5985 1.688 89.6092 1.72533 89.6305 1.768C89.6518 1.81067 89.6785 1.85867 89.7105 1.912L91.5825 5.352C91.6038 5.37333 91.6838 5.272 91.8225 5.048C91.9612 4.81333 92.1318 4.52 92.3345 4.168C92.5478 3.80533 92.7612 3.42667 92.9745 3.032C93.1878 2.63733 93.3798 2.28533 93.5505 1.976C93.5825 1.912 93.6038 1.848 93.6145 1.784C93.6252 1.72 93.6305 1.66133 93.6305 1.608C93.6305 1.512 93.5452 1.43733 93.3745 1.384C93.2145 1.33067 93.0438 1.29333 92.8625 1.272C92.6812 1.25067 92.5532 1.24 92.4785 1.24C92.4358 1.18667 92.4145 1.09067 92.4145 0.952C92.4252 0.802666 92.4465 0.706666 92.4785 0.664C92.8518 0.696 93.1452 0.722666 93.3585 0.743999C93.5825 0.754666 93.8758 0.759999 94.2385 0.759999C94.5798 0.759999 94.8732 0.749333 95.1185 0.728C95.3745 0.695999 95.6625 0.674666 95.9825 0.664C96.0145 0.706666 96.0305 0.802666 96.0305 0.952C96.0412 1.09067 96.0252 1.18667 95.9825 1.24C95.9185 1.24 95.8065 1.25067 95.6465 1.272C95.4972 1.28267 95.3425 1.31467 95.1825 1.368C95.0332 1.42133 94.9158 1.50667 94.8305 1.624C94.7665 1.72 94.6438 1.912 94.4625 2.2C94.2812 2.488 94.0678 2.82933 93.8225 3.224C93.5878 3.608 93.3425 4.008 93.0865 4.424C92.8412 4.82933 92.6172 5.208 92.4145 5.56C92.2118 5.90133 92.0678 6.16267 91.9825 6.344C91.9292 6.472 91.9025 6.57333 91.9025 6.648V8.728C91.9025 8.76 91.9025 8.79733 91.9025 8.84C91.9025 8.872 91.9025 8.904 91.9025 8.936C91.9025 9.21333 91.9078 9.45867 91.9185 9.672C91.9292 9.88533 91.9612 10.0613 92.0145 10.2C92.0465 10.264 92.1265 10.3173 92.2545 10.36C92.3932 10.4027 92.5372 10.4347 92.6865 10.456C92.8465 10.4667 92.9585 10.4773 93.0225 10.488C93.0652 10.5413 93.0812 10.6373 93.0705 10.776C93.0705 10.9147 93.0545 11.0107 93.0225 11.064C92.7238 11.032 92.3558 11.0053 91.9185 10.984C91.4918 10.9627 91.1132 10.952 90.7825 10.952C90.4518 10.952 90.0785 10.9627 89.6625 10.984C89.2572 11.0053 88.8998 11.032 88.5905 11.064C88.5585 11.0107 88.5372 10.9147 88.5265 10.776C88.5265 10.6373 88.5478 10.5413 88.5905 10.488C88.6652 10.4773 88.7718 10.4667 88.9105 10.456C89.0598 10.4347 89.2038 10.4027 89.3425 10.36C89.4812 10.3173 89.5612 10.264 89.5825 10.2C89.6465 10.04 89.6838 9.83733 89.6945 9.592C89.7052 9.34667 89.7105 9.05867 89.7105 8.728Z" fill="white"/>
</svg>
