<svg width="24" height="24" viewBox="0 0 24 24" fill="none" xmlns="http://www.w3.org/2000/svg">
<circle cx="7.5" cy="7.5" r="5" stroke="#B3B3B3"/>
<circle cx="16.5" cy="16.5" r="5" stroke="#B3B3B3"/>
<path fill-rule="evenodd" clip-rule="evenodd" d="M8.27778 4.77778C8.27778 4.34822 7.92955 4 7.5 4C7.07045 4 6.72222 4.34822 6.72222 4.77778V6.72222H4.77778C4.34822 6.72222 4 7.07044 4 7.5C4 7.92955 4.34822 8.27778 4.77778 8.27778H6.72222V10.2222C6.72222 10.6518 7.07044 11 7.5 11C7.92955 11 8.27778 10.6518 8.27778 10.2222V8.27778H10.2222C10.6518 8.27778 11 7.92955 11 7.5C11 7.07044 10.6518 6.72222 10.2222 6.72222H8.27778V4.77778Z" fill="#B3B3B3"/>
<rect x="13" y="15.7" width="7" height="1.55556" rx="0.777778" fill="#B3B3B3"/>
</svg>
