<svg width="139" height="78" viewBox="0 0 139 78" fill="none" xmlns="http://www.w3.org/2000/svg">
<path d="M45.8001 77.44L55.6801 67.56H27.7201V39.59L17.8301 49.48V77.44H45.8001Z" fill="#FBAE17"/>
<path d="M67.3102 0L57.4302 9.88H85.3902V37.85L95.2802 27.97V0H67.3102Z" fill="#FBAE17"/>
<path d="M15.39 14.69H0V15.27C0 15.27 0 15.27 0.01 15.28H0C1.39 17.07 2.24 18.77 2.27 21.72V60.48C2.29 60.84 2.39 61.07 2.71 61.22C3.13 61.42 3.45 61.23 4.03 60.65L13.11 51.57V21.64C13.16 18.74 14 17.06 15.39 15.28H15.38C15.38 15.28 15.38 15.28 15.39 15.27V14.69Z" fill="#034A9A"/>
<path d="M138.58 14.69H123.18V15.27C123.18 15.27 123.18 15.27 123.19 15.28C124.54 17.01 125.37 18.65 125.46 21.42V44.66C125.46 49.33 121.68 53.11 117.01 53.11C112.35 53.11 108.57 49.33 108.57 44.66V17.07C108.57 16.53 108.55 15.97 108.13 15.82C107.7 15.66 107.46 15.79 106.88 16.37L97.73 25.52V43.89C97.73 54.54 106.37 63.18 117.02 63.18C127.67 63.18 136.31 54.54 136.31 43.89V21.85C136.32 18.82 137.17 17.09 138.59 15.28H138.58C138.58 15.28 138.59 15.28 138.59 15.27V14.69H138.58Z" fill="#034A9A"/>
<path d="M78.2799 14.69H62.8899V15.27C62.8899 15.27 62.8899 15.27 62.8999 15.28H62.8899C64.3099 17.1 65.1499 18.82 65.1699 21.85V41.88L49.9399 17.37L37.4299 29.88V55.2C37.4299 58.27 36.5799 60.01 35.1499 61.84V62.42H50.5399V61.84C50.5399 61.84 50.5299 61.84 50.5299 61.83C49.1599 60.07 48.3199 58.39 48.2599 55.53V35.23L63.4999 59.74L75.9999 47.23V21.74C76.0299 18.78 76.8799 17.08 78.2799 15.28C78.2799 15.28 78.2799 15.28 78.2899 15.27V14.69H78.2799Z" fill="#034A9A"/>
</svg>
