<svg width="91" height="11" viewBox="0 0 91 11" fill="none" xmlns="http://www.w3.org/2000/svg">
<path d="M5.08078 0.324999C6.21078 0.324999 7.19578 0.514999 8.03578 0.894999C8.88578 1.265 9.54078 1.805 10.0008 2.515C10.4708 3.225 10.7058 4.08 10.7058 5.08C10.7058 5.94 10.5558 6.685 10.2558 7.315C9.96578 7.935 9.55578 8.45 9.02578 8.86C8.50578 9.26 7.89578 9.56 7.19578 9.76C6.50578 9.95 5.76578 10.045 4.97578 10.045C4.89578 10.045 4.78078 10.045 4.63078 10.045C4.49078 10.045 4.32078 10.045 4.12078 10.045C3.84078 10.045 3.52578 10.045 3.17578 10.045C2.83578 10.045 2.49578 10.045 2.15578 10.045C1.82578 10.045 1.53078 10.045 1.27078 10.045C1.02078 10.045 0.840781 10.045 0.730781 10.045C0.700781 9.995 0.680781 9.905 0.670781 9.775C0.670781 9.645 0.690781 9.555 0.730781 9.505C0.800781 9.495 0.905781 9.485 1.04578 9.475C1.18578 9.455 1.32078 9.43 1.45078 9.4C1.58078 9.36 1.65578 9.31 1.67578 9.25C1.73578 9.1 1.77078 8.91 1.78078 8.68C1.79078 8.45 1.79578 8.18 1.79578 7.87V2.485C1.79578 2.165 1.79078 1.895 1.78078 1.675C1.77078 1.445 1.73578 1.255 1.67578 1.105C1.65578 1.035 1.58078 0.985 1.45078 0.954999C1.32078 0.925 1.18578 0.905 1.04578 0.894999C0.905781 0.884999 0.800781 0.879999 0.730781 0.879999C0.690781 0.829999 0.670781 0.734999 0.670781 0.594999C0.680781 0.455 0.700781 0.364999 0.730781 0.324999C1.06078 0.345 1.41578 0.36 1.79578 0.37C2.17578 0.37 2.52078 0.37 2.83078 0.37C3.14078 0.37 3.48578 0.365 3.86578 0.355C4.24578 0.344999 4.65078 0.334999 5.08078 0.324999ZM3.85078 1.99V7.93C3.85078 7.93 3.85078 7.94 3.85078 7.96C3.85078 8.01 3.85078 8.11 3.85078 8.26C3.85078 8.4 3.85578 8.55 3.86578 8.71C3.88578 8.87 3.91578 8.995 3.95578 9.085C4.00578 9.185 4.12578 9.27 4.31578 9.34C4.50578 9.4 4.69578 9.43 4.88578 9.43C6.07578 9.43 6.95078 9.09 7.51078 8.41C8.08078 7.72 8.36578 6.665 8.36578 5.245C8.36578 4.285 8.20578 3.485 7.88578 2.845C7.56578 2.205 7.12578 1.725 6.56578 1.405C6.01578 1.085 5.37578 0.925 4.64578 0.925C4.48578 0.925 4.33078 0.935 4.18078 0.954999C4.04078 0.964999 3.95078 1.01 3.91078 1.09C3.88078 1.17 3.86078 1.27 3.85078 1.39C3.85078 1.51 3.85078 1.65 3.85078 1.81C3.85078 1.84 3.85078 1.87 3.85078 1.9C3.85078 1.93 3.85078 1.96 3.85078 1.99ZM16.8882 0.235C17.5382 0.235 18.1582 0.365 18.7482 0.625C19.3482 0.875 19.8782 1.23 20.3382 1.69C20.8082 2.14 21.1782 2.665 21.4482 3.265C21.7282 3.865 21.8682 4.51 21.8682 5.2C21.8682 5.89 21.7282 6.535 21.4482 7.135C21.1782 7.725 20.8082 8.25 20.3382 8.71C19.8782 9.16 19.3482 9.515 18.7482 9.775C18.1582 10.025 17.5382 10.15 16.8882 10.15C16.2482 10.15 15.6282 10.025 15.0282 9.775C14.4282 9.515 13.8932 9.16 13.4232 8.71C12.9632 8.25 12.5932 7.725 12.3132 7.135C12.0432 6.535 11.9082 5.89 11.9082 5.2C11.9082 4.51 12.0432 3.865 12.3132 3.265C12.5932 2.665 12.9632 2.14 13.4232 1.69C13.8932 1.23 14.4282 0.875 15.0282 0.625C15.6282 0.365 16.2482 0.235 16.8882 0.235ZM16.5432 0.865C16.1132 0.865 15.7482 0.98 15.4482 1.21C15.1582 1.44 14.9232 1.745 14.7432 2.125C14.5732 2.495 14.4482 2.905 14.3682 3.355C14.2882 3.805 14.2482 4.25 14.2482 4.69C14.2482 5.25 14.2982 5.815 14.3982 6.385C14.5082 6.945 14.6782 7.465 14.9082 7.945C15.1382 8.415 15.4382 8.795 15.8082 9.085C16.1882 9.375 16.6532 9.52 17.2032 9.52C17.6432 9.52 18.0082 9.41 18.2982 9.19C18.5982 8.96 18.8382 8.66 19.0182 8.29C19.1982 7.92 19.3282 7.51 19.4082 7.06C19.4882 6.61 19.5282 6.165 19.5282 5.725C19.5282 5.165 19.4732 4.6 19.3632 4.03C19.2632 3.46 19.0932 2.935 18.8532 2.455C18.6232 1.975 18.3182 1.59 17.9382 1.3C17.5582 1.01 17.0932 0.865 16.5432 0.865ZM27.2442 0.324999C27.8542 0.324999 28.3992 0.425 28.8792 0.625C29.3592 0.825 29.7392 1.125 30.0192 1.525C30.2992 1.915 30.4392 2.405 30.4392 2.995C30.4392 3.295 30.3692 3.58 30.2292 3.85C30.0992 4.11 29.9292 4.35 29.7192 4.57C29.5092 4.78 29.2892 4.955 29.0592 5.095C28.8392 5.225 28.6392 5.315 28.4592 5.365C28.8192 5.845 29.1592 6.295 29.4792 6.715C29.7992 7.125 30.0592 7.46 30.2592 7.72C30.4692 7.97 30.5742 8.095 30.5742 8.095C30.9342 8.555 31.2942 8.885 31.6542 9.085C32.0142 9.285 32.3192 9.41 32.5692 9.46C32.8192 9.5 32.9642 9.52 33.0042 9.52C33.0442 9.57 33.0542 9.67 33.0342 9.82C33.0242 9.96 33.0142 10.04 33.0042 10.06C32.7942 10.07 32.4942 10.08 32.1042 10.09C31.7242 10.11 31.3842 10.12 31.0842 10.12C30.5242 10.12 30.0542 10 29.6742 9.76C29.3042 9.52 29.0292 9.275 28.8492 9.025L26.4792 5.845C26.4792 5.845 26.4492 5.81 26.3892 5.74C26.3292 5.66 26.2692 5.62 26.2092 5.62H25.9992V7.87C25.9992 7.9 25.9992 7.935 25.9992 7.975C25.9992 8.005 25.9992 8.035 25.9992 8.065C25.9992 8.325 26.0042 8.555 26.0142 8.755C26.0242 8.955 26.0542 9.12 26.1042 9.25C26.1342 9.31 26.2092 9.36 26.3292 9.4C26.4592 9.44 26.5942 9.47 26.7342 9.49C26.8842 9.5 26.9892 9.51 27.0492 9.52C27.0892 9.57 27.1042 9.66 27.0942 9.79C27.0942 9.92 27.0792 10.01 27.0492 10.06C26.7692 10.03 26.4242 10.005 26.0142 9.985C25.6142 9.965 25.2592 9.955 24.9492 9.955C24.6392 9.955 24.2892 9.965 23.8992 9.985C23.5092 10.005 23.1692 10.03 22.8792 10.06C22.8492 10.01 22.8292 9.92 22.8192 9.79C22.8192 9.66 22.8392 9.57 22.8792 9.52C22.9492 9.51 23.0542 9.5 23.1942 9.49C23.3342 9.47 23.4692 9.44 23.5992 9.4C23.7292 9.36 23.8042 9.31 23.8242 9.25C23.8842 9.1 23.9192 8.91 23.9292 8.68C23.9392 8.45 23.9442 8.18 23.9442 7.87V2.485C23.9442 2.165 23.9392 1.895 23.9292 1.675C23.9192 1.445 23.8842 1.255 23.8242 1.105C23.8042 1.035 23.7292 0.985 23.5992 0.954999C23.4692 0.925 23.3342 0.905 23.1942 0.894999C23.0542 0.884999 22.9492 0.879999 22.8792 0.879999C22.8392 0.829999 22.8192 0.734999 22.8192 0.594999C22.8292 0.455 22.8492 0.364999 22.8792 0.324999C23.2092 0.345 23.5642 0.36 23.9442 0.37C24.3242 0.37 24.6692 0.37 24.9792 0.37C25.2892 0.37 25.6342 0.365 26.0142 0.355C26.4042 0.335 26.8142 0.324999 27.2442 0.324999ZM28.2642 3.145C28.2642 2.755 28.2242 2.395 28.1442 2.065C28.0642 1.725 27.9192 1.45 27.7092 1.24C27.4992 1.03 27.1942 0.925 26.7942 0.925C26.6342 0.925 26.4792 0.935 26.3292 0.954999C26.1892 0.964999 26.0992 1.01 26.0592 1.09C26.0292 1.17 26.0092 1.27 25.9992 1.39C25.9992 1.51 25.9992 1.65 25.9992 1.81C25.9992 1.84 25.9992 1.87 25.9992 1.9C25.9992 1.93 25.9992 1.96 25.9992 1.99V5.05H26.6592C26.9392 5.05 27.1992 4.97 27.4392 4.81C27.6892 4.65 27.8892 4.425 28.0392 4.135C28.1892 3.845 28.2642 3.515 28.2642 3.145ZM34.9659 0.385C35.2159 0.385 35.4609 0.375 35.7009 0.355C35.9509 0.335 36.2209 0.319999 36.5109 0.31C36.6209 0.54 36.7709 0.874999 36.9609 1.315C37.1609 1.755 37.3859 2.26 37.6359 2.83C37.8859 3.4 38.1509 4.005 38.4309 4.645C38.7209 5.275 39.0009 5.9 39.2709 6.52C39.2709 6.52 39.2759 6.525 39.2859 6.535C39.3059 6.545 39.3209 6.55 39.3309 6.55C39.3409 6.55 39.3509 6.54 39.3609 6.52C39.3809 6.49 39.3909 6.47 39.3909 6.46C39.3909 6.46 39.4509 6.315 39.5709 6.025C39.6909 5.725 39.8409 5.345 40.0209 4.885C40.2009 4.425 40.3859 3.94 40.5759 3.43C40.7759 2.92 40.9559 2.445 41.1159 2.005C41.1959 1.795 41.2709 1.565 41.3409 1.315C41.4209 1.055 41.4859 0.83 41.5359 0.64C41.5859 0.45 41.6109 0.355 41.6109 0.355C41.6609 0.355 41.7909 0.36 42.0009 0.37C42.2209 0.38 42.4509 0.389999 42.6909 0.399999C42.9309 0.399999 43.0959 0.399999 43.1859 0.399999C43.4359 0.399999 43.7109 0.389999 44.0109 0.37C44.3109 0.339999 44.6059 0.319999 44.8959 0.31C44.9259 0.34 44.9509 0.425 44.9709 0.565C45.0009 0.705 44.9959 0.805 44.9559 0.865C44.8959 0.865 44.7709 0.88 44.5809 0.91C44.4009 0.93 44.2709 0.964999 44.1909 1.015C44.1209 1.065 44.0659 1.13 44.0259 1.21C43.9959 1.28 43.9859 1.415 43.9959 1.615C44.0059 1.865 44.0159 2.24 44.0259 2.74C44.0459 3.23 44.0659 3.775 44.0859 4.375C44.1059 4.975 44.1259 5.575 44.1459 6.175C44.1659 6.775 44.1859 7.31 44.2059 7.78C44.2259 8.06 44.2459 8.33 44.2659 8.59C44.2859 8.84 44.3309 9.06 44.4009 9.25C44.4309 9.32 44.5109 9.375 44.6409 9.415C44.7809 9.455 44.9209 9.485 45.0609 9.505C45.2009 9.515 45.2909 9.52 45.3309 9.52C45.4109 9.69 45.4209 9.87 45.3609 10.06C45.0709 10.04 44.7459 10.015 44.3859 9.985C44.0259 9.955 43.6859 9.94 43.3659 9.94C43.0259 9.94 42.6409 9.955 42.2109 9.985C41.7809 10.015 41.3959 10.04 41.0559 10.06C41.0259 10.03 41.0059 9.95 40.9959 9.82C40.9959 9.68 41.0059 9.58 41.0259 9.52C41.0859 9.52 41.1909 9.51 41.3409 9.49C41.4909 9.47 41.6359 9.44 41.7759 9.4C41.9259 9.36 42.0209 9.305 42.0609 9.235C42.1009 9.175 42.1309 9.095 42.1509 8.995C42.1709 8.885 42.1809 8.795 42.1809 8.725C42.1809 8.645 42.1809 8.51 42.1809 8.32C42.1809 8.12 42.1759 7.955 42.1659 7.825L42.0159 2.725C42.0159 2.705 42.0109 2.635 42.0009 2.515C41.9909 2.395 41.9609 2.335 41.9109 2.335C41.8909 2.335 41.8659 2.37 41.8359 2.44L39.2559 9.415C39.2459 9.455 39.2059 9.525 39.1359 9.625C39.0659 9.725 38.9859 9.82 38.8959 9.91C38.8059 9.99 38.7159 10.03 38.6259 10.03C38.5959 10.03 38.5509 10.02 38.4909 10L35.2359 2.335C35.2159 2.945 35.1959 3.465 35.1759 3.895C35.1659 4.315 35.1559 4.685 35.1459 5.005C35.1359 5.315 35.1259 5.615 35.1159 5.905C35.1059 6.195 35.0959 6.51 35.0859 6.85C35.0759 7.18 35.0609 7.575 35.0409 8.035C35.0309 8.195 35.0359 8.395 35.0559 8.635C35.0759 8.865 35.0909 9.005 35.1009 9.055C35.1209 9.135 35.1909 9.205 35.3109 9.265C35.4309 9.325 35.5659 9.375 35.7159 9.415C35.8759 9.445 36.0159 9.47 36.1359 9.49C36.2659 9.51 36.3459 9.52 36.3759 9.52C36.3959 9.57 36.4109 9.655 36.4209 9.775C36.4309 9.885 36.4259 9.98 36.4059 10.06C36.1159 10.04 35.8209 10.015 35.5209 9.985C35.2209 9.955 34.9109 9.94 34.5909 9.94C34.2509 9.94 33.9459 9.955 33.6759 9.985C33.4059 10.015 33.1009 10.04 32.7609 10.06C32.7309 10.01 32.7159 9.93 32.7159 9.82C32.7159 9.7 32.7259 9.605 32.7459 9.535C32.8059 9.535 32.9259 9.52 33.1059 9.49C33.2859 9.45 33.4659 9.39 33.6459 9.31C33.8259 9.23 33.9409 9.13 33.9909 9.01C34.0109 8.96 34.0309 8.85 34.0509 8.68C34.0809 8.5 34.1059 8.315 34.1259 8.125C34.1459 7.935 34.1559 7.8 34.1559 7.72C34.1759 7.38 34.1959 6.97 34.2159 6.49C34.2359 6.01 34.2559 5.51 34.2759 4.99C34.2959 4.47 34.3159 3.97 34.3359 3.49C34.3559 3.01 34.3709 2.595 34.3809 2.245C34.3909 1.885 34.4009 1.635 34.4109 1.495C34.4109 1.445 34.4059 1.39 34.3959 1.33C34.3959 1.27 34.3759 1.215 34.3359 1.165C34.2759 1.085 34.1359 1.015 33.9159 0.954999C33.6959 0.885 33.5209 0.85 33.3909 0.85C33.3509 0.789999 33.3359 0.689999 33.3459 0.549999C33.3659 0.399999 33.3809 0.319999 33.3909 0.31C33.6209 0.319999 33.8059 0.329999 33.9459 0.339999C34.0959 0.35 34.2459 0.36 34.3959 0.37C34.5559 0.38 34.7459 0.385 34.9659 0.385ZM48.3874 0.399999C48.6974 0.399999 49.0474 0.394999 49.4374 0.385C49.8374 0.365 50.1774 0.34 50.4574 0.31C50.4874 0.35 50.5024 0.44 50.5024 0.58C50.5124 0.71 50.4974 0.8 50.4574 0.85C50.3974 0.85 50.2924 0.86 50.1424 0.879999C50.0024 0.889999 49.8674 0.914999 49.7374 0.954999C49.6174 0.985 49.5424 1.035 49.5124 1.105C49.4624 1.235 49.4324 1.4 49.4224 1.6C49.4124 1.8 49.4074 2.03 49.4074 2.29C49.4074 2.32 49.4074 2.355 49.4074 2.395C49.4074 2.425 49.4074 2.455 49.4074 2.485V7.87C49.4074 7.9 49.4074 7.935 49.4074 7.975C49.4074 8.005 49.4074 8.035 49.4074 8.065C49.4074 8.325 49.4124 8.555 49.4224 8.755C49.4324 8.955 49.4624 9.12 49.5124 9.25C49.5424 9.31 49.6174 9.36 49.7374 9.4C49.8674 9.44 50.0024 9.47 50.1424 9.49C50.2924 9.5 50.3974 9.51 50.4574 9.52C50.4974 9.57 50.5124 9.66 50.5024 9.79C50.5024 9.92 50.4874 10.01 50.4574 10.06C50.1774 10.03 49.8324 10.005 49.4224 9.985C49.0224 9.965 48.6674 9.955 48.3574 9.955C48.0474 9.955 47.6974 9.965 47.3074 9.985C46.9174 10.005 46.5774 10.03 46.2874 10.06C46.2574 10.01 46.2374 9.92 46.2274 9.79C46.2274 9.66 46.2474 9.57 46.2874 9.52C46.3574 9.51 46.4624 9.5 46.6024 9.49C46.7424 9.47 46.8774 9.44 47.0074 9.4C47.1374 9.36 47.2124 9.31 47.2324 9.25C47.2924 9.1 47.3274 8.91 47.3374 8.68C47.3474 8.45 47.3524 8.18 47.3524 7.87V2.485C47.3524 2.165 47.3474 1.895 47.3374 1.675C47.3274 1.445 47.2924 1.255 47.2324 1.105C47.2124 1.035 47.1374 0.985 47.0074 0.954999C46.8774 0.914999 46.7424 0.889999 46.6024 0.879999C46.4624 0.86 46.3574 0.85 46.2874 0.85C46.2474 0.8 46.2274 0.71 46.2274 0.58C46.2374 0.44 46.2574 0.35 46.2874 0.31C46.5774 0.34 46.9224 0.365 47.3224 0.385C47.7224 0.394999 48.0774 0.399999 48.3874 0.399999ZM58.0712 0.37C58.4212 0.37 58.6862 0.35 58.8662 0.31C59.0562 0.26 59.2012 0.215 59.3012 0.175C59.4012 0.125 59.4962 0.0999996 59.5862 0.0999996C59.6462 0.0999996 59.6812 0.105 59.6912 0.114999C59.7112 0.114999 59.7362 0.125 59.7662 0.145L60.1562 2.83C60.1362 2.85 60.0762 2.875 59.9762 2.905C59.8862 2.925 59.8062 2.935 59.7362 2.935C59.6462 2.935 59.5962 2.91 59.5862 2.86C59.5362 2.54 59.4362 2.24 59.2862 1.96C59.1362 1.68 58.9512 1.455 58.7312 1.285C58.5112 1.105 58.2762 1.015 58.0262 1.015H56.6612V7.87C56.6612 8.18 56.6662 8.45 56.6762 8.68C56.6862 8.91 56.7212 9.1 56.7812 9.25C56.8112 9.31 56.8862 9.36 57.0062 9.4C57.1362 9.44 57.2712 9.47 57.4112 9.49C57.5512 9.5 57.6512 9.51 57.7112 9.52C57.7512 9.57 57.7662 9.66 57.7562 9.79C57.7562 9.92 57.7412 10.01 57.7112 10.06C57.4312 10.03 57.0912 10.005 56.6912 9.985C56.2912 9.965 55.9362 9.955 55.6262 9.955C55.3162 9.955 54.9662 9.965 54.5762 9.985C54.1862 10.005 53.8462 10.03 53.5562 10.06C53.5262 10.01 53.5062 9.92 53.4962 9.79C53.4962 9.66 53.5162 9.57 53.5562 9.52C53.6262 9.51 53.7262 9.5 53.8562 9.49C53.9962 9.47 54.1312 9.44 54.2612 9.4C54.3912 9.36 54.4662 9.31 54.4862 9.25C54.5462 9.1 54.5812 8.91 54.5912 8.68C54.6012 8.45 54.6062 8.18 54.6062 7.87V1.015H53.2412C52.9912 1.015 52.7562 1.105 52.5362 1.285C52.3162 1.455 52.1312 1.68 51.9812 1.96C51.8312 2.24 51.7312 2.54 51.6812 2.86C51.6712 2.91 51.6212 2.935 51.5312 2.935C51.4612 2.935 51.3762 2.925 51.2762 2.905C51.1862 2.875 51.1312 2.85 51.1112 2.83L51.5012 0.145C51.5312 0.125 51.5512 0.114999 51.5612 0.114999C51.5812 0.105 51.6212 0.0999996 51.6812 0.0999996C51.7712 0.0999996 51.8662 0.125 51.9662 0.175C52.0662 0.215 52.2062 0.26 52.3862 0.31C52.5762 0.35 52.8462 0.37 53.1962 0.37H58.0712ZM65.7701 0.235C66.4201 0.235 67.0401 0.365 67.6301 0.625C68.2301 0.875 68.7601 1.23 69.2201 1.69C69.6901 2.14 70.0601 2.665 70.3301 3.265C70.6101 3.865 70.7501 4.51 70.7501 5.2C70.7501 5.89 70.6101 6.535 70.3301 7.135C70.0601 7.725 69.6901 8.25 69.2201 8.71C68.7601 9.16 68.2301 9.515 67.6301 9.775C67.0401 10.025 66.4201 10.15 65.7701 10.15C65.1301 10.15 64.5101 10.025 63.9101 9.775C63.3101 9.515 62.7751 9.16 62.3051 8.71C61.8451 8.25 61.4751 7.725 61.1951 7.135C60.9251 6.535 60.7901 5.89 60.7901 5.2C60.7901 4.51 60.9251 3.865 61.1951 3.265C61.4751 2.665 61.8451 2.14 62.3051 1.69C62.7751 1.23 63.3101 0.875 63.9101 0.625C64.5101 0.365 65.1301 0.235 65.7701 0.235ZM65.4251 0.865C64.9951 0.865 64.6301 0.98 64.3301 1.21C64.0401 1.44 63.8051 1.745 63.6251 2.125C63.4551 2.495 63.3301 2.905 63.2501 3.355C63.1701 3.805 63.1301 4.25 63.1301 4.69C63.1301 5.25 63.1801 5.815 63.2801 6.385C63.3901 6.945 63.5601 7.465 63.7901 7.945C64.0201 8.415 64.3201 8.795 64.6901 9.085C65.0701 9.375 65.5351 9.52 66.0851 9.52C66.5251 9.52 66.8901 9.41 67.1801 9.19C67.4801 8.96 67.7201 8.66 67.9001 8.29C68.0801 7.92 68.2101 7.51 68.2901 7.06C68.3701 6.61 68.4101 6.165 68.4101 5.725C68.4101 5.165 68.3551 4.6 68.2451 4.03C68.1451 3.46 67.9751 2.935 67.7351 2.455C67.5051 1.975 67.2001 1.59 66.8201 1.3C66.4401 1.01 65.9751 0.865 65.4251 0.865ZM76.1261 0.324999C76.7361 0.324999 77.2811 0.425 77.7611 0.625C78.2411 0.825 78.6211 1.125 78.9011 1.525C79.1811 1.915 79.3211 2.405 79.3211 2.995C79.3211 3.295 79.2511 3.58 79.1111 3.85C78.9811 4.11 78.8111 4.35 78.6011 4.57C78.3911 4.78 78.1711 4.955 77.9411 5.095C77.7211 5.225 77.5211 5.315 77.3411 5.365C77.7011 5.845 78.0411 6.295 78.3611 6.715C78.6811 7.125 78.9411 7.46 79.1411 7.72C79.3511 7.97 79.4561 8.095 79.4561 8.095C79.8161 8.555 80.1761 8.885 80.5361 9.085C80.8961 9.285 81.2011 9.41 81.4511 9.46C81.7011 9.5 81.8461 9.52 81.8861 9.52C81.9261 9.57 81.9361 9.67 81.9161 9.82C81.9061 9.96 81.8961 10.04 81.8861 10.06C81.6761 10.07 81.3761 10.08 80.9861 10.09C80.6061 10.11 80.2661 10.12 79.9661 10.12C79.4061 10.12 78.9361 10 78.5561 9.76C78.1861 9.52 77.9111 9.275 77.7311 9.025L75.3611 5.845C75.3611 5.845 75.3311 5.81 75.2711 5.74C75.2111 5.66 75.1511 5.62 75.0911 5.62H74.8811V7.87C74.8811 7.9 74.8811 7.935 74.8811 7.975C74.8811 8.005 74.8811 8.035 74.8811 8.065C74.8811 8.325 74.8861 8.555 74.8961 8.755C74.9061 8.955 74.9361 9.12 74.9861 9.25C75.0161 9.31 75.0911 9.36 75.2111 9.4C75.3411 9.44 75.4761 9.47 75.6161 9.49C75.7661 9.5 75.8711 9.51 75.9311 9.52C75.9711 9.57 75.9861 9.66 75.9761 9.79C75.9761 9.92 75.9611 10.01 75.9311 10.06C75.6511 10.03 75.3061 10.005 74.8961 9.985C74.4961 9.965 74.1411 9.955 73.8311 9.955C73.5211 9.955 73.1711 9.965 72.7811 9.985C72.3911 10.005 72.0511 10.03 71.7611 10.06C71.7311 10.01 71.7111 9.92 71.7011 9.79C71.7011 9.66 71.7211 9.57 71.7611 9.52C71.8311 9.51 71.9361 9.5 72.0761 9.49C72.2161 9.47 72.3511 9.44 72.4811 9.4C72.6111 9.36 72.6861 9.31 72.7061 9.25C72.7661 9.1 72.8011 8.91 72.8111 8.68C72.8211 8.45 72.8261 8.18 72.8261 7.87V2.485C72.8261 2.165 72.8211 1.895 72.8111 1.675C72.8011 1.445 72.7661 1.255 72.7061 1.105C72.6861 1.035 72.6111 0.985 72.4811 0.954999C72.3511 0.925 72.2161 0.905 72.0761 0.894999C71.9361 0.884999 71.8311 0.879999 71.7611 0.879999C71.7211 0.829999 71.7011 0.734999 71.7011 0.594999C71.7111 0.455 71.7311 0.364999 71.7611 0.324999C72.0911 0.345 72.4461 0.36 72.8261 0.37C73.2061 0.37 73.5511 0.37 73.8611 0.37C74.1711 0.37 74.5161 0.365 74.8961 0.355C75.2861 0.335 75.6961 0.324999 76.1261 0.324999ZM77.1461 3.145C77.1461 2.755 77.1061 2.395 77.0261 2.065C76.9461 1.725 76.8011 1.45 76.5911 1.24C76.3811 1.03 76.0761 0.925 75.6761 0.925C75.5161 0.925 75.3611 0.935 75.2111 0.954999C75.0711 0.964999 74.9811 1.01 74.9411 1.09C74.9111 1.17 74.8911 1.27 74.8811 1.39C74.8811 1.51 74.8811 1.65 74.8811 1.81C74.8811 1.84 74.8811 1.87 74.8811 1.9C74.8811 1.93 74.8811 1.96 74.8811 1.99V5.05H75.5411C75.8211 5.05 76.0811 4.97 76.3211 4.81C76.5711 4.65 76.7711 4.425 76.9211 4.135C77.0711 3.845 77.1461 3.515 77.1461 3.145ZM84.1036 7.87V5.845C84.1036 5.765 84.0736 5.665 84.0136 5.545C83.9336 5.385 83.8186 5.17 83.6686 4.9C83.5286 4.62 83.3736 4.325 83.2036 4.015C83.0336 3.695 82.8686 3.395 82.7086 3.115C82.5586 2.825 82.4336 2.59 82.3336 2.41C82.2336 2.23 82.1836 2.14 82.1836 2.14C82.0736 1.94 81.9936 1.795 81.9436 1.705C81.8936 1.605 81.8236 1.48 81.7336 1.33C81.6236 1.15 81.4536 1.03 81.2236 0.969999C80.9936 0.899999 80.8286 0.86 80.7286 0.85C80.6886 0.8 80.6736 0.71 80.6836 0.58C80.6836 0.44 80.6986 0.35 80.7286 0.31C81.0186 0.34 81.3636 0.365 81.7636 0.385C82.1636 0.394999 82.5186 0.399999 82.8286 0.399999C83.1386 0.399999 83.4886 0.394999 83.8786 0.385C84.2786 0.365 84.6186 0.34 84.8986 0.31C84.9286 0.35 84.9436 0.44 84.9436 0.58C84.9536 0.71 84.9386 0.8 84.8986 0.85C84.8386 0.85 84.7336 0.86 84.5836 0.879999C84.4436 0.889999 84.3086 0.924999 84.1786 0.985C84.0586 1.035 83.9986 1.12 83.9986 1.24C83.9986 1.27 84.0086 1.305 84.0286 1.345C84.0486 1.385 84.0736 1.43 84.1036 1.48L85.8586 4.705C85.8786 4.725 85.9536 4.63 86.0836 4.42C86.2136 4.2 86.3736 3.925 86.5636 3.595C86.7636 3.255 86.9636 2.9 87.1636 2.53C87.3636 2.16 87.5436 1.83 87.7036 1.54C87.7336 1.48 87.7536 1.42 87.7636 1.36C87.7736 1.3 87.7786 1.245 87.7786 1.195C87.7786 1.105 87.6986 1.035 87.5386 0.985C87.3886 0.935 87.2286 0.9 87.0586 0.879999C86.8886 0.86 86.7686 0.85 86.6986 0.85C86.6586 0.8 86.6386 0.71 86.6386 0.58C86.6486 0.44 86.6686 0.35 86.6986 0.31C87.0486 0.34 87.3236 0.365 87.5236 0.385C87.7336 0.394999 88.0086 0.399999 88.3486 0.399999C88.6686 0.399999 88.9436 0.389999 89.1736 0.37C89.4136 0.339999 89.6836 0.319999 89.9836 0.31C90.0136 0.35 90.0286 0.44 90.0286 0.58C90.0386 0.71 90.0236 0.8 89.9836 0.85C89.9236 0.85 89.8186 0.86 89.6686 0.879999C89.5286 0.889999 89.3836 0.919999 89.2336 0.969999C89.0936 1.02 88.9836 1.1 88.9036 1.21C88.8436 1.3 88.7286 1.48 88.5586 1.75C88.3886 2.02 88.1886 2.34 87.9586 2.71C87.7386 3.07 87.5086 3.445 87.2686 3.835C87.0386 4.215 86.8286 4.57 86.6386 4.9C86.4486 5.22 86.3136 5.465 86.2336 5.635C86.1836 5.755 86.1586 5.85 86.1586 5.92V7.87C86.1586 7.9 86.1586 7.935 86.1586 7.975C86.1586 8.005 86.1586 8.035 86.1586 8.065C86.1586 8.325 86.1636 8.555 86.1736 8.755C86.1836 8.955 86.2136 9.12 86.2636 9.25C86.2936 9.31 86.3686 9.36 86.4886 9.4C86.6186 9.44 86.7536 9.47 86.8936 9.49C87.0436 9.5 87.1486 9.51 87.2086 9.52C87.2486 9.57 87.2636 9.66 87.2536 9.79C87.2536 9.92 87.2386 10.01 87.2086 10.06C86.9286 10.03 86.5836 10.005 86.1736 9.985C85.7736 9.965 85.4186 9.955 85.1086 9.955C84.7986 9.955 84.4486 9.965 84.0586 9.985C83.6786 10.005 83.3436 10.03 83.0536 10.06C83.0236 10.01 83.0036 9.92 82.9936 9.79C82.9936 9.66 83.0136 9.57 83.0536 9.52C83.1236 9.51 83.2236 9.5 83.3536 9.49C83.4936 9.47 83.6286 9.44 83.7586 9.4C83.8886 9.36 83.9636 9.31 83.9836 9.25C84.0436 9.1 84.0786 8.91 84.0886 8.68C84.0986 8.45 84.1036 8.18 84.1036 7.87Z" fill="#6D6E6B"/>
</svg>
