<svg width="255" height="12" viewBox="0 0 255 12" fill="none" xmlns="http://www.w3.org/2000/svg">
<path d="M3.23044 0.759999C3.5611 0.759999 3.93444 0.754666 4.35044 0.743999C4.7771 0.722666 5.13977 0.696 5.43844 0.664C5.47044 0.706666 5.48644 0.802666 5.48644 0.952C5.4971 1.09067 5.4811 1.18667 5.43844 1.24C5.37444 1.24 5.26244 1.25067 5.10244 1.272C4.9531 1.28267 4.8091 1.30933 4.67044 1.352C4.54244 1.384 4.46244 1.43733 4.43044 1.512C4.3771 1.65067 4.3451 1.82667 4.33444 2.04C4.32377 2.25333 4.31844 2.49867 4.31844 2.776C4.31844 2.808 4.31844 2.84533 4.31844 2.888C4.31844 2.92 4.31844 2.952 4.31844 2.984V8.728C4.31844 8.76 4.31844 8.79733 4.31844 8.84C4.31844 8.872 4.31844 8.904 4.31844 8.936C4.31844 9.21333 4.32377 9.45867 4.33444 9.672C4.3451 9.88533 4.3771 10.0613 4.43044 10.2C4.46244 10.264 4.54244 10.3173 4.67044 10.36C4.8091 10.4027 4.9531 10.4347 5.10244 10.456C5.26244 10.4667 5.37444 10.4773 5.43844 10.488C5.4811 10.5413 5.4971 10.6373 5.48644 10.776C5.48644 10.9147 5.47044 11.0107 5.43844 11.064C5.13977 11.032 4.77177 11.0053 4.33444 10.984C3.90777 10.9627 3.5291 10.952 3.19844 10.952C2.86777 10.952 2.49444 10.9627 2.07844 10.984C1.66244 11.0053 1.29977 11.032 0.990438 11.064C0.958438 11.0107 0.937104 10.9147 0.926437 10.776C0.926437 10.6373 0.947771 10.5413 0.990438 10.488C1.0651 10.4773 1.1771 10.4667 1.32644 10.456C1.47577 10.4347 1.61977 10.4027 1.75844 10.36C1.8971 10.3173 1.9771 10.264 1.99844 10.2C2.06244 10.04 2.09977 9.83733 2.11044 9.592C2.1211 9.34667 2.12644 9.05867 2.12644 8.728V2.984C2.12644 2.64267 2.1211 2.35467 2.11044 2.12C2.09977 1.87467 2.06244 1.672 1.99844 1.512C1.9771 1.43733 1.8971 1.384 1.75844 1.352C1.61977 1.30933 1.47577 1.28267 1.32644 1.272C1.1771 1.25067 1.0651 1.24 0.990438 1.24C0.947771 1.18667 0.926437 1.09067 0.926437 0.952C0.937104 0.802666 0.958438 0.706666 0.990438 0.664C1.29977 0.696 1.66777 0.722666 2.09444 0.743999C2.5211 0.754666 2.89977 0.759999 3.23044 0.759999ZM8.35981 0.759999C8.63715 0.759999 8.93048 0.754666 9.23981 0.743999C9.54915 0.722666 9.82648 0.696 10.0718 0.664C10.2211 0.962666 10.4718 1.35733 10.8238 1.848C11.1865 2.328 11.6025 2.86667 12.0718 3.464C12.5518 4.05067 13.0531 4.65867 13.5758 5.288C14.0985 5.91733 14.5998 6.53067 15.0798 7.128C15.1011 7.07467 15.1118 6.984 15.1118 6.856C15.1118 6.71733 15.1118 6.59467 15.1118 6.488V3.56C15.1118 3.35733 15.1011 3.11733 15.0798 2.84C15.0691 2.552 15.0531 2.28533 15.0318 2.04C15.0105 1.79467 14.9785 1.63467 14.9358 1.56C14.8931 1.464 14.7811 1.39467 14.5998 1.352C14.4185 1.29867 14.2318 1.26667 14.0398 1.256C13.8585 1.23467 13.7358 1.224 13.6718 1.224C13.6611 1.224 13.6451 1.14933 13.6238 1C13.6131 0.84 13.6291 0.722666 13.6718 0.648C14.0345 0.658666 14.3491 0.68 14.6158 0.712C14.8931 0.743999 15.2131 0.759999 15.5758 0.759999C15.9171 0.759999 16.2531 0.743999 16.5838 0.712C16.9145 0.68 17.2345 0.658666 17.5438 0.648C17.5651 0.690667 17.5758 0.781333 17.5758 0.919999C17.5865 1.048 17.5651 1.15467 17.5118 1.24C17.4691 1.24 17.3518 1.24533 17.1598 1.256C16.9678 1.26667 16.7705 1.29867 16.5678 1.352C16.3758 1.39467 16.2585 1.47467 16.2158 1.592C16.1945 1.66667 16.1678 1.82133 16.1358 2.056C16.1145 2.29067 16.0985 2.54667 16.0878 2.824C16.0771 3.09067 16.0718 3.32 16.0718 3.512V8.824C16.0718 9.28267 16.0771 9.66133 16.0878 9.96C16.1091 10.2587 16.1251 10.6107 16.1358 11.016C16.1145 11.0373 16.0451 11.0533 15.9278 11.064C15.8211 11.0747 15.7571 11.08 15.7358 11.08C15.6611 11.08 15.5811 11.048 15.4958 10.984C15.4211 10.9093 15.3411 10.8187 15.2558 10.712L8.88781 2.888V8.552C8.88781 8.82933 8.90381 9.12267 8.93581 9.432C8.97848 9.73067 9.02115 9.93867 9.06381 10.056C9.10648 10.152 9.22381 10.232 9.41581 10.296C9.60781 10.36 9.79981 10.408 9.99181 10.44C10.1838 10.4613 10.3011 10.472 10.3438 10.472C10.3971 10.5467 10.4185 10.6533 10.4078 10.792C10.4078 10.92 10.3971 11.0107 10.3758 11.064C10.0665 11.0427 9.74648 11.016 9.41581 10.984C9.08515 10.952 8.74915 10.936 8.40781 10.936C8.04515 10.936 7.72515 10.952 7.44781 10.984C7.18115 11.016 6.86648 11.0427 6.50381 11.064C6.46115 10.9893 6.44515 10.8773 6.45581 10.728C6.47715 10.568 6.49315 10.488 6.50381 10.488C6.56781 10.488 6.69048 10.472 6.87181 10.44C7.06381 10.408 7.24515 10.3653 7.41581 10.312C7.59715 10.248 7.70915 10.168 7.75181 10.072C7.80515 9.95467 7.84781 9.74133 7.87981 9.432C7.92248 9.112 7.94381 8.80267 7.94381 8.504V2.968C7.94381 2.75467 7.92248 2.504 7.87981 2.216C7.83715 1.928 7.76248 1.70933 7.65581 1.56C7.61315 1.48533 7.51715 1.42667 7.36781 1.384C7.22915 1.34133 7.08515 1.30933 6.93581 1.288C6.79715 1.256 6.69581 1.24 6.63181 1.24C6.61048 1.24 6.58915 1.19733 6.56781 1.112C6.55715 1.02667 6.55181 0.935999 6.55181 0.839999C6.56248 0.743999 6.57848 0.685333 6.59981 0.664C6.84515 0.674666 7.10648 0.695999 7.38381 0.728C7.67181 0.749333 7.99715 0.759999 8.35981 0.759999ZM23.7117 0.584C24.2237 0.584 24.7784 0.610666 25.3757 0.664C25.973 0.706666 26.501 0.776 26.9597 0.872C26.9704 0.914666 27.0024 1.05333 27.0557 1.288C27.109 1.512 27.1677 1.768 27.2317 2.056C27.3064 2.33333 27.365 2.58933 27.4077 2.824C27.461 3.048 27.4877 3.18667 27.4877 3.24C27.4877 3.28267 27.445 3.33067 27.3597 3.384C27.2744 3.43733 27.1837 3.464 27.0877 3.464C27.045 3.464 27.0024 3.464 26.9597 3.464C26.9277 3.45333 26.8957 3.432 26.8637 3.4C26.821 3.25067 26.741 3.05867 26.6237 2.824C26.517 2.57867 26.3517 2.33867 26.1277 2.104C25.9037 1.85867 25.605 1.656 25.2317 1.496C24.869 1.336 24.4104 1.256 23.8557 1.256C23.1197 1.256 22.5277 1.45867 22.0797 1.864C21.6317 2.25867 21.3064 2.78133 21.1037 3.432C20.901 4.072 20.7997 4.76 20.7997 5.496C20.7997 6.104 20.8637 6.70133 20.9917 7.288C21.1197 7.87467 21.317 8.40267 21.5837 8.872C21.861 9.34133 22.213 9.72 22.6397 10.008C23.0664 10.2853 23.573 10.424 24.1597 10.424C24.629 10.424 25.0184 10.36 25.3277 10.232C25.637 10.104 25.893 9.944 26.0957 9.752C26.3197 9.54933 26.5117 9.304 26.6717 9.016C26.8317 8.728 26.9544 8.46667 27.0397 8.232C27.1357 7.99733 27.189 7.85867 27.1997 7.816C27.4237 7.816 27.605 7.87467 27.7437 7.992C27.7437 8.03467 27.7224 8.17867 27.6797 8.424C27.637 8.65867 27.5784 8.92533 27.5037 9.224C27.4397 9.512 27.3704 9.77333 27.2957 10.008C27.2317 10.232 27.1677 10.3547 27.1037 10.376C26.613 10.5467 26.101 10.712 25.5677 10.872C25.0344 11.032 24.405 11.112 23.6797 11.112C22.9437 11.112 22.2504 10.984 21.5997 10.728C20.949 10.472 20.3784 10.1147 19.8877 9.656C19.397 9.19733 19.0077 8.65333 18.7197 8.024C18.4424 7.39467 18.3037 6.712 18.3037 5.976C18.3037 5.21867 18.4424 4.51467 18.7197 3.864C19.0077 3.21333 19.397 2.64267 19.8877 2.152C20.389 1.66133 20.965 1.27733 21.6157 1C22.2664 0.722666 22.965 0.584 23.7117 0.584ZM31.0429 0.759999C31.3736 0.759999 31.7469 0.754666 32.1629 0.743999C32.5896 0.722666 32.9523 0.696 33.2509 0.664C33.2829 0.706666 33.2989 0.802666 33.2989 0.952C33.3096 1.09067 33.2936 1.18667 33.2509 1.24C33.1869 1.24 33.0749 1.25067 32.9149 1.272C32.7656 1.28267 32.6216 1.30933 32.4829 1.352C32.3549 1.384 32.2749 1.43733 32.2429 1.512C32.1896 1.65067 32.1576 1.82667 32.1469 2.04C32.1363 2.25333 32.1309 2.49867 32.1309 2.776C32.1309 2.808 32.1309 2.84533 32.1309 2.888C32.1309 2.92 32.1309 2.952 32.1309 2.984V5.208C32.1309 5.21867 32.1309 5.22933 32.1309 5.24C32.1416 5.25067 32.1469 5.256 32.1469 5.256C32.4563 5.26667 32.7603 5.27733 33.0589 5.288C33.3683 5.29867 33.6989 5.304 34.0509 5.304C34.3389 5.304 34.6429 5.29867 34.9629 5.288C35.2936 5.27733 35.5976 5.26667 35.8749 5.256C35.8749 5.256 35.8803 5.25067 35.8909 5.24C35.9016 5.21867 35.9069 5.20267 35.9069 5.192L35.8909 2.984C35.8909 2.64267 35.8856 2.35467 35.8749 2.12C35.8643 1.87467 35.8269 1.672 35.7629 1.512C35.7416 1.43733 35.6616 1.384 35.5229 1.352C35.3843 1.30933 35.2403 1.28267 35.0909 1.272C34.9523 1.25067 34.8456 1.24 34.7709 1.24C34.7283 1.18667 34.7069 1.09067 34.7069 0.952C34.7176 0.802666 34.7389 0.706666 34.7709 0.664C35.0803 0.696 35.4429 0.722666 35.8589 0.743999C36.2856 0.754666 36.6643 0.759999 36.9949 0.759999C37.3256 0.759999 37.6989 0.754666 38.1149 0.743999C38.5416 0.722666 38.9043 0.696 39.2029 0.664C39.2349 0.706666 39.2509 0.802666 39.2509 0.952C39.2616 1.09067 39.2456 1.18667 39.2029 1.24C39.1389 1.24 39.0269 1.25067 38.8669 1.272C38.7176 1.28267 38.5736 1.30933 38.4349 1.352C38.3069 1.384 38.2269 1.43733 38.1949 1.512C38.1416 1.65067 38.1096 1.82667 38.0989 2.04C38.0883 2.25333 38.0829 2.49867 38.0829 2.776C38.0829 2.808 38.0829 2.84533 38.0829 2.888C38.0829 2.92 38.0829 2.952 38.0829 2.984V8.728C38.0829 8.76 38.0829 8.79733 38.0829 8.84C38.0829 8.872 38.0829 8.904 38.0829 8.936C38.0829 9.21333 38.0883 9.45867 38.0989 9.672C38.1096 9.88533 38.1416 10.0613 38.1949 10.2C38.2269 10.264 38.3069 10.3173 38.4349 10.36C38.5736 10.4027 38.7176 10.4347 38.8669 10.456C39.0269 10.4667 39.1389 10.4773 39.2029 10.488C39.2456 10.5413 39.2616 10.6373 39.2509 10.776C39.2509 10.9147 39.2349 11.0107 39.2029 11.064C38.9043 11.032 38.5363 11.0053 38.0989 10.984C37.6723 10.9627 37.2936 10.952 36.9629 10.952C36.6323 10.952 36.2589 10.9627 35.8429 10.984C35.4376 11.0053 35.0803 11.032 34.7709 11.064C34.7389 11.0107 34.7176 10.9147 34.7069 10.776C34.7069 10.6373 34.7283 10.5413 34.7709 10.488C34.8456 10.4773 34.9523 10.4667 35.0909 10.456C35.2403 10.4347 35.3843 10.4027 35.5229 10.36C35.6616 10.3173 35.7416 10.264 35.7629 10.2C35.8269 10.04 35.8643 9.83733 35.8749 9.592C35.8856 9.34667 35.8909 9.05867 35.8909 8.728V6.152C35.8909 6.13067 35.8856 6.11467 35.8749 6.104C35.8643 6.08267 35.8589 6.072 35.8589 6.072C35.5709 6.06133 35.2776 6.056 34.9789 6.056C34.6803 6.04533 34.3709 6.04 34.0509 6.04C33.4749 6.04 33.0536 6.04533 32.7869 6.056C32.5203 6.056 32.3496 6.06133 32.2749 6.072C32.2003 6.08267 32.1523 6.09333 32.1309 6.104C32.1203 6.11467 32.1149 6.13067 32.1149 6.152C32.1256 6.16267 32.1309 6.168 32.1309 6.168V8.728C32.1309 8.76 32.1309 8.79733 32.1309 8.84C32.1309 8.872 32.1309 8.904 32.1309 8.936C32.1309 9.21333 32.1363 9.45867 32.1469 9.672C32.1576 9.88533 32.1896 10.0613 32.2429 10.2C32.2749 10.264 32.3549 10.3173 32.4829 10.36C32.6216 10.4027 32.7656 10.4347 32.9149 10.456C33.0749 10.4667 33.1869 10.4773 33.2509 10.488C33.2936 10.5413 33.3096 10.6373 33.2989 10.776C33.2989 10.9147 33.2829 11.0107 33.2509 11.064C32.9523 11.032 32.5843 11.0053 32.1469 10.984C31.7203 10.9627 31.3416 10.952 31.0109 10.952C30.6803 10.952 30.3069 10.9627 29.8909 10.984C29.4749 11.0053 29.1123 11.032 28.8029 11.064C28.7709 11.0107 28.7496 10.9147 28.7389 10.776C28.7389 10.6373 28.7603 10.5413 28.8029 10.488C28.8776 10.4773 28.9896 10.4667 29.1389 10.456C29.2883 10.4347 29.4323 10.4027 29.5709 10.36C29.7096 10.3173 29.7896 10.264 29.8109 10.2C29.8749 10.04 29.9123 9.83733 29.9229 9.592C29.9336 9.34667 29.9389 9.05867 29.9389 8.728V2.984C29.9389 2.64267 29.9336 2.35467 29.9229 2.12C29.9123 1.87467 29.8749 1.672 29.8109 1.512C29.7896 1.43733 29.7096 1.384 29.5709 1.352C29.4323 1.30933 29.2883 1.28267 29.1389 1.272C28.9896 1.25067 28.8776 1.24 28.8029 1.24C28.7603 1.18667 28.7389 1.09067 28.7389 0.952C28.7496 0.802666 28.7709 0.706666 28.8029 0.664C29.1123 0.696 29.4803 0.722666 29.9069 0.743999C30.3336 0.754666 30.7123 0.759999 31.0429 0.759999ZM42.6054 0.728C42.7334 0.728 42.9574 0.728 43.2774 0.728C43.6081 0.717333 43.9814 0.706666 44.3974 0.695999C44.8241 0.685333 45.2561 0.679999 45.6934 0.679999C46.1308 0.669333 46.5254 0.658666 46.8774 0.648C47.2401 0.637333 47.5121 0.632 47.6934 0.632C47.7468 1.02667 47.8161 1.42133 47.9014 1.816C47.9868 2.21067 48.0668 2.584 48.1414 2.936C48.1201 2.95733 48.0668 2.97867 47.9814 3C47.8961 3.01067 47.8268 3.016 47.7734 3.016C47.6454 3.016 47.5654 2.97333 47.5334 2.888C47.3628 2.45067 47.1548 2.08267 46.9094 1.784C46.6748 1.47467 46.3174 1.32 45.8374 1.32H44.5414C44.3708 1.32 44.2054 1.33067 44.0454 1.352C43.8961 1.36267 43.8001 1.41067 43.7574 1.496C43.7254 1.58133 43.7041 1.688 43.6934 1.816C43.6934 1.944 43.6934 2.09333 43.6934 2.264C43.6934 2.296 43.6934 2.328 43.6934 2.36C43.6934 2.392 43.6934 2.424 43.6934 2.456V5.256C43.6934 5.29867 43.7628 5.336 43.9014 5.368C44.0401 5.4 44.1948 5.416 44.3654 5.416H45.1814C45.4908 5.416 45.7254 5.38933 45.8854 5.336C46.0561 5.28267 46.1894 5.176 46.2854 5.016C46.3814 4.856 46.4721 4.62667 46.5574 4.328C46.5788 4.24267 46.6428 4.2 46.7494 4.2C46.8881 4.2 46.9841 4.22667 47.0374 4.28V7.288C47.0268 7.29867 46.9894 7.30933 46.9254 7.32C46.8721 7.33067 46.8188 7.336 46.7654 7.336C46.6268 7.336 46.5521 7.29867 46.5414 7.224C46.4454 6.85067 46.3494 6.60533 46.2534 6.488C46.1574 6.37067 46.0721 6.296 45.9974 6.264C45.8161 6.18933 45.4214 6.152 44.8134 6.152C44.6748 6.152 44.5148 6.15733 44.3334 6.168C44.1628 6.17867 44.0134 6.2 43.8854 6.232C43.7574 6.264 43.6934 6.312 43.6934 6.376V8.792C43.6934 8.792 43.6934 8.80267 43.6934 8.824C43.6934 8.87733 43.6934 8.984 43.6934 9.144C43.6934 9.29333 43.6988 9.45333 43.7094 9.624C43.7308 9.79467 43.7628 9.928 43.8054 10.024C43.8588 10.1307 43.9921 10.2107 44.2054 10.264C44.4188 10.3173 44.6268 10.344 44.8294 10.344H45.8534C46.1521 10.344 46.4241 10.3013 46.6694 10.216C46.9254 10.1307 47.1388 10.0027 47.3094 9.832C47.4801 9.66133 47.6294 9.45867 47.7574 9.224C47.8854 8.98933 48.0188 8.696 48.1574 8.344C48.1788 8.28 48.2481 8.248 48.3654 8.248C48.4508 8.248 48.5468 8.25867 48.6534 8.28C48.7601 8.30133 48.8241 8.32267 48.8454 8.344C48.7494 8.62133 48.6428 8.92533 48.5254 9.256C48.4081 9.58667 48.3014 9.90667 48.2054 10.216C48.1094 10.5253 48.0401 10.7973 47.9974 11.032C47.8908 11.032 47.6454 11.032 47.2614 11.032C46.8774 11.032 46.4134 11.032 45.8694 11.032C45.3254 11.032 44.7548 11.032 44.1574 11.032C43.5708 11.032 43.0054 11.032 42.4614 11.032C41.9281 11.032 41.4694 11.032 41.0854 11.032C40.7121 11.0427 40.4721 11.048 40.3654 11.048C40.3334 10.9947 40.3121 10.8987 40.3014 10.76C40.3014 10.6213 40.3228 10.5253 40.3654 10.472C40.4401 10.4613 40.5521 10.4507 40.7014 10.44C40.8508 10.4187 40.9948 10.392 41.1334 10.36C41.2721 10.3173 41.3521 10.264 41.3734 10.2C41.4374 10.04 41.4748 9.83733 41.4854 9.592C41.4961 9.34667 41.5014 9.05867 41.5014 8.728V2.984C41.5014 2.64267 41.4961 2.35467 41.4854 2.12C41.4748 1.87467 41.4374 1.672 41.3734 1.512C41.3521 1.43733 41.2721 1.384 41.1334 1.352C40.9948 1.32 40.8508 1.29867 40.7014 1.288C40.5521 1.27733 40.4401 1.272 40.3654 1.272C40.3228 1.21867 40.3014 1.11733 40.3014 0.967999C40.3121 0.818666 40.3334 0.722666 40.3654 0.679999C40.7174 0.701333 41.0961 0.717333 41.5014 0.728C41.9068 0.728 42.2748 0.728 42.6054 0.728ZM55.1001 0.584C55.7934 0.584 56.4547 0.722666 57.0841 1C57.7241 1.26667 58.2894 1.64533 58.7801 2.136C59.2814 2.616 59.6761 3.176 59.9641 3.816C60.2627 4.456 60.4121 5.144 60.4121 5.88C60.4121 6.616 60.2627 7.304 59.9641 7.944C59.6761 8.57333 59.2814 9.13333 58.7801 9.624C58.2894 10.104 57.7241 10.4827 57.0841 10.76C56.4547 11.0267 55.7934 11.16 55.1001 11.16C54.4174 11.16 53.7561 11.0267 53.1161 10.76C52.4761 10.4827 51.9054 10.104 51.4041 9.624C50.9134 9.13333 50.5187 8.57333 50.2201 7.944C49.9321 7.304 49.7881 6.616 49.7881 5.88C49.7881 5.144 49.9321 4.456 50.2201 3.816C50.5187 3.176 50.9134 2.616 51.4041 2.136C51.9054 1.64533 52.4761 1.26667 53.1161 1C53.7561 0.722666 54.4174 0.584 55.1001 0.584ZM54.7321 1.256C54.2734 1.256 53.8841 1.37867 53.5641 1.624C53.2547 1.86933 53.0041 2.19467 52.8121 2.6C52.6307 2.99467 52.4974 3.432 52.4121 3.912C52.3267 4.392 52.2841 4.86667 52.2841 5.336C52.2841 5.93333 52.3374 6.536 52.4441 7.144C52.5614 7.74133 52.7427 8.296 52.9881 8.808C53.2334 9.30933 53.5534 9.71467 53.9481 10.024C54.3534 10.3333 54.8494 10.488 55.4361 10.488C55.9054 10.488 56.2947 10.3707 56.6041 10.136C56.9241 9.89067 57.1801 9.57067 57.3721 9.176C57.5641 8.78133 57.7027 8.344 57.7881 7.864C57.8734 7.384 57.9161 6.90933 57.9161 6.44C57.9161 5.84267 57.8574 5.24 57.7401 4.632C57.6334 4.024 57.4521 3.464 57.1961 2.952C56.9507 2.44 56.6254 2.02933 56.2201 1.72C55.8147 1.41067 55.3187 1.256 54.7321 1.256ZM63.1879 0.759999C63.4653 0.759999 63.7586 0.754666 64.0679 0.743999C64.3773 0.722666 64.6546 0.696 64.8999 0.664C65.0493 0.962666 65.2999 1.35733 65.6519 1.848C66.0146 2.328 66.4306 2.86667 66.8999 3.464C67.3799 4.05067 67.8813 4.65867 68.4039 5.288C68.9266 5.91733 69.4279 6.53067 69.9079 7.128C69.9293 7.07467 69.9399 6.984 69.9399 6.856C69.9399 6.71733 69.9399 6.59467 69.9399 6.488V3.56C69.9399 3.35733 69.9293 3.11733 69.9079 2.84C69.8973 2.552 69.8813 2.28533 69.8599 2.04C69.8386 1.79467 69.8066 1.63467 69.7639 1.56C69.7213 1.464 69.6093 1.39467 69.4279 1.352C69.2466 1.29867 69.0599 1.26667 68.8679 1.256C68.6866 1.23467 68.5639 1.224 68.4999 1.224C68.4893 1.224 68.4733 1.14933 68.4519 1C68.4413 0.84 68.4573 0.722666 68.4999 0.648C68.8626 0.658666 69.1773 0.68 69.4439 0.712C69.7213 0.743999 70.0413 0.759999 70.4039 0.759999C70.7453 0.759999 71.0813 0.743999 71.4119 0.712C71.7426 0.68 72.0626 0.658666 72.3719 0.648C72.3933 0.690667 72.4039 0.781333 72.4039 0.919999C72.4146 1.048 72.3933 1.15467 72.3399 1.24C72.2973 1.24 72.1799 1.24533 71.9879 1.256C71.7959 1.26667 71.5986 1.29867 71.3959 1.352C71.2039 1.39467 71.0866 1.47467 71.0439 1.592C71.0226 1.66667 70.9959 1.82133 70.9639 2.056C70.9426 2.29067 70.9266 2.54667 70.9159 2.824C70.9053 3.09067 70.8999 3.32 70.8999 3.512V8.824C70.8999 9.28267 70.9053 9.66133 70.9159 9.96C70.9373 10.2587 70.9533 10.6107 70.9639 11.016C70.9426 11.0373 70.8733 11.0533 70.7559 11.064C70.6493 11.0747 70.5853 11.08 70.5639 11.08C70.4893 11.08 70.4093 11.048 70.3239 10.984C70.2493 10.9093 70.1693 10.8187 70.0839 10.712L63.7159 2.888V8.552C63.7159 8.82933 63.7319 9.12267 63.7639 9.432C63.8066 9.73067 63.8493 9.93867 63.8919 10.056C63.9346 10.152 64.0519 10.232 64.2439 10.296C64.4359 10.36 64.6279 10.408 64.8199 10.44C65.0119 10.4613 65.1293 10.472 65.1719 10.472C65.2253 10.5467 65.2466 10.6533 65.2359 10.792C65.2359 10.92 65.2253 11.0107 65.2039 11.064C64.8946 11.0427 64.5746 11.016 64.2439 10.984C63.9133 10.952 63.5773 10.936 63.2359 10.936C62.8733 10.936 62.5533 10.952 62.2759 10.984C62.0093 11.016 61.6946 11.0427 61.3319 11.064C61.2893 10.9893 61.2733 10.8773 61.2839 10.728C61.3053 10.568 61.3213 10.488 61.3319 10.488C61.3959 10.488 61.5186 10.472 61.6999 10.44C61.8919 10.408 62.0733 10.3653 62.2439 10.312C62.4253 10.248 62.5373 10.168 62.5799 10.072C62.6333 9.95467 62.6759 9.74133 62.7079 9.432C62.7506 9.112 62.7719 8.80267 62.7719 8.504V2.968C62.7719 2.75467 62.7506 2.504 62.7079 2.216C62.6653 1.928 62.5906 1.70933 62.4839 1.56C62.4413 1.48533 62.3453 1.42667 62.1959 1.384C62.0573 1.34133 61.9133 1.30933 61.7639 1.288C61.6253 1.256 61.5239 1.24 61.4599 1.24C61.4386 1.24 61.4173 1.19733 61.3959 1.112C61.3853 1.02667 61.3799 0.935999 61.3799 0.839999C61.3906 0.743999 61.4066 0.685333 61.4279 0.664C61.6733 0.674666 61.9346 0.695999 62.2119 0.728C62.4999 0.749333 62.8253 0.759999 63.1879 0.759999ZM79.7348 0.759999C80.0121 0.759999 80.3055 0.754666 80.6148 0.743999C80.9241 0.722666 81.2015 0.696 81.4468 0.664C81.5961 0.962666 81.8468 1.35733 82.1988 1.848C82.5615 2.328 82.9775 2.86667 83.4468 3.464C83.9268 4.05067 84.4281 4.65867 84.9508 5.288C85.4735 5.91733 85.9748 6.53067 86.4548 7.128C86.4761 7.07467 86.4868 6.984 86.4868 6.856C86.4868 6.71733 86.4868 6.59467 86.4868 6.488V3.56C86.4868 3.35733 86.4761 3.11733 86.4548 2.84C86.4441 2.552 86.4281 2.28533 86.4068 2.04C86.3855 1.79467 86.3535 1.63467 86.3108 1.56C86.2681 1.464 86.1561 1.39467 85.9748 1.352C85.7935 1.29867 85.6068 1.26667 85.4148 1.256C85.2335 1.23467 85.1108 1.224 85.0468 1.224C85.0361 1.224 85.0201 1.14933 84.9988 1C84.9881 0.84 85.0041 0.722666 85.0468 0.648C85.4095 0.658666 85.7241 0.68 85.9908 0.712C86.2681 0.743999 86.5881 0.759999 86.9508 0.759999C87.2921 0.759999 87.6281 0.743999 87.9588 0.712C88.2895 0.68 88.6095 0.658666 88.9188 0.648C88.9401 0.690667 88.9508 0.781333 88.9508 0.919999C88.9615 1.048 88.9401 1.15467 88.8868 1.24C88.8441 1.24 88.7268 1.24533 88.5348 1.256C88.3428 1.26667 88.1455 1.29867 87.9428 1.352C87.7508 1.39467 87.6335 1.47467 87.5908 1.592C87.5695 1.66667 87.5428 1.82133 87.5108 2.056C87.4895 2.29067 87.4735 2.54667 87.4628 2.824C87.4521 3.09067 87.4468 3.32 87.4468 3.512V8.824C87.4468 9.28267 87.4521 9.66133 87.4628 9.96C87.4841 10.2587 87.5001 10.6107 87.5108 11.016C87.4895 11.0373 87.4201 11.0533 87.3028 11.064C87.1961 11.0747 87.1321 11.08 87.1108 11.08C87.0361 11.08 86.9561 11.048 86.8708 10.984C86.7961 10.9093 86.7161 10.8187 86.6308 10.712L80.2628 2.888V8.552C80.2628 8.82933 80.2788 9.12267 80.3108 9.432C80.3535 9.73067 80.3961 9.93867 80.4388 10.056C80.4815 10.152 80.5988 10.232 80.7908 10.296C80.9828 10.36 81.1748 10.408 81.3668 10.44C81.5588 10.4613 81.6761 10.472 81.7188 10.472C81.7721 10.5467 81.7935 10.6533 81.7828 10.792C81.7828 10.92 81.7721 11.0107 81.7508 11.064C81.4415 11.0427 81.1215 11.016 80.7908 10.984C80.4601 10.952 80.1241 10.936 79.7828 10.936C79.4201 10.936 79.1001 10.952 78.8228 10.984C78.5561 11.016 78.2415 11.0427 77.8788 11.064C77.8361 10.9893 77.8201 10.8773 77.8308 10.728C77.8521 10.568 77.8681 10.488 77.8788 10.488C77.9428 10.488 78.0655 10.472 78.2468 10.44C78.4388 10.408 78.6201 10.3653 78.7908 10.312C78.9721 10.248 79.0841 10.168 79.1268 10.072C79.1801 9.95467 79.2228 9.74133 79.2548 9.432C79.2975 9.112 79.3188 8.80267 79.3188 8.504V2.968C79.3188 2.75467 79.2975 2.504 79.2548 2.216C79.2121 1.928 79.1375 1.70933 79.0308 1.56C78.9881 1.48533 78.8921 1.42667 78.7428 1.384C78.6041 1.34133 78.4601 1.30933 78.3108 1.288C78.1721 1.256 78.0708 1.24 78.0068 1.24C77.9855 1.24 77.9641 1.19733 77.9428 1.112C77.9321 1.02667 77.9268 0.935999 77.9268 0.839999C77.9375 0.743999 77.9535 0.685333 77.9748 0.664C78.2201 0.674666 78.4815 0.695999 78.7588 0.728C79.0468 0.749333 79.3721 0.759999 79.7348 0.759999ZM90.4486 8.904L93.7766 1.256C93.8299 1.14933 93.9152 1.02667 94.0326 0.888C94.1606 0.738666 94.2672 0.664 94.3526 0.664C94.5339 0.664 94.6459 0.695999 94.6886 0.759999L97.8886 8.68C97.9952 8.91467 98.0752 9.12267 98.1286 9.304C98.1819 9.47467 98.2459 9.64533 98.3206 9.816C98.4166 10.0293 98.5499 10.184 98.7206 10.28C98.9019 10.376 99.0726 10.4347 99.2326 10.456C99.4032 10.4773 99.5099 10.488 99.5526 10.488C99.5952 10.5627 99.6166 10.6693 99.6166 10.808C99.6272 10.9467 99.6166 11.032 99.5846 11.064C99.2752 11.0427 98.9339 11.016 98.5606 10.984C98.1872 10.952 97.8299 10.936 97.4886 10.936C97.2539 10.936 96.9872 10.9467 96.6886 10.968C96.3899 10.9787 96.1019 10.9947 95.8246 11.016C95.5579 11.0373 95.3286 11.0533 95.1366 11.064C95.1152 11.032 95.0992 10.9733 95.0886 10.888C95.0779 10.792 95.0779 10.7013 95.0886 10.616C95.0992 10.5307 95.1152 10.488 95.1366 10.488C95.2752 10.488 95.4352 10.4667 95.6166 10.424C95.8086 10.3707 95.9579 10.296 96.0646 10.2C96.1499 10.1253 96.1926 10.04 96.1926 9.944C96.1926 9.912 96.1606 9.816 96.0966 9.656C96.0326 9.48533 95.9526 9.28267 95.8566 9.048C95.7712 8.81333 95.6806 8.584 95.5846 8.36C95.4992 8.12533 95.4246 7.93333 95.3606 7.784C95.2966 7.63467 95.2646 7.56 95.2646 7.56C95.2646 7.56 95.2486 7.54933 95.2166 7.528C95.1952 7.50667 95.1739 7.496 95.1526 7.496C94.9286 7.48533 94.7099 7.48 94.4966 7.48C94.2939 7.48 94.1072 7.48 93.9366 7.48C93.8832 7.48 93.8299 7.48 93.7766 7.48C93.7339 7.48 93.6912 7.48 93.6486 7.48C93.3286 7.48 93.0459 7.48 92.8006 7.48C92.5659 7.48 92.3099 7.48533 92.0326 7.496C91.9899 7.496 91.9526 7.52267 91.9206 7.576C91.9206 7.576 91.8832 7.656 91.8086 7.816C91.7446 7.976 91.6699 8.15733 91.5846 8.36C91.4992 8.56267 91.4246 8.73867 91.3606 8.888C91.2859 9.08 91.2059 9.29333 91.1206 9.528C91.0459 9.76267 91.0086 9.90667 91.0086 9.96C91.0086 10.088 91.0992 10.1947 91.2806 10.28C91.4619 10.3547 91.6486 10.408 91.8406 10.44C92.0432 10.472 92.1659 10.488 92.2086 10.488C92.2619 10.5413 92.2832 10.6427 92.2726 10.792C92.2619 10.9413 92.2459 11.032 92.2246 11.064C91.9579 11.032 91.6966 11.0053 91.4406 10.984C91.1846 10.952 90.8859 10.936 90.5446 10.936C90.1819 10.936 89.8726 10.952 89.6166 10.984C89.3712 11.0053 89.1099 11.032 88.8326 11.064C88.8006 11.032 88.7792 10.952 88.7686 10.824C88.7579 10.696 88.7686 10.5893 88.8006 10.504C88.8646 10.504 88.9712 10.4827 89.1206 10.44C89.2806 10.3867 89.4352 10.3227 89.5846 10.248C89.7446 10.1733 89.8512 10.0933 89.9046 10.008C90.0432 9.79467 90.1446 9.61333 90.2086 9.464C90.2726 9.304 90.3526 9.11733 90.4486 8.904ZM93.5846 3.56L92.2566 6.632C92.2566 6.632 92.2566 6.64267 92.2566 6.664C92.2672 6.67467 92.2779 6.68 92.2886 6.68C92.4486 6.69067 92.6619 6.70133 92.9286 6.712C93.1952 6.72267 93.4139 6.728 93.5846 6.728C93.8299 6.728 94.0379 6.728 94.2086 6.728C94.3899 6.71733 94.5979 6.70667 94.8326 6.696C94.8539 6.696 94.8646 6.68533 94.8646 6.664C94.8752 6.64267 94.8806 6.632 94.8806 6.632L93.5846 3.56ZM106.107 0.728C106.48 0.728 106.763 0.706666 106.955 0.664C107.157 0.610666 107.312 0.562666 107.419 0.52C107.525 0.466666 107.627 0.44 107.723 0.44C107.787 0.44 107.824 0.445333 107.835 0.455999C107.856 0.455999 107.883 0.466666 107.915 0.488L108.331 3.352C108.309 3.37333 108.245 3.4 108.139 3.432C108.043 3.45333 107.957 3.464 107.883 3.464C107.787 3.464 107.733 3.43733 107.723 3.384C107.669 3.04267 107.563 2.72267 107.403 2.424C107.243 2.12533 107.045 1.88533 106.811 1.704C106.576 1.512 106.325 1.416 106.059 1.416H104.603V8.728C104.603 9.05867 104.608 9.34667 104.619 9.592C104.629 9.83733 104.667 10.04 104.731 10.2C104.763 10.264 104.843 10.3173 104.971 10.36C105.109 10.4027 105.253 10.4347 105.403 10.456C105.552 10.4667 105.659 10.4773 105.723 10.488C105.765 10.5413 105.781 10.6373 105.771 10.776C105.771 10.9147 105.755 11.0107 105.723 11.064C105.424 11.032 105.061 11.0053 104.635 10.984C104.208 10.9627 103.829 10.952 103.499 10.952C103.168 10.952 102.795 10.9627 102.379 10.984C101.963 11.0053 101.6 11.032 101.291 11.064C101.259 11.0107 101.237 10.9147 101.227 10.776C101.227 10.6373 101.248 10.5413 101.291 10.488C101.365 10.4773 101.472 10.4667 101.611 10.456C101.76 10.4347 101.904 10.4027 102.043 10.36C102.181 10.3173 102.261 10.264 102.283 10.2C102.347 10.04 102.384 9.83733 102.395 9.592C102.405 9.34667 102.411 9.05867 102.411 8.728V1.416H100.955C100.688 1.416 100.437 1.512 100.203 1.704C99.968 1.88533 99.7707 2.12533 99.6107 2.424C99.4507 2.72267 99.344 3.04267 99.2907 3.384C99.28 3.43733 99.2267 3.464 99.1307 3.464C99.056 3.464 98.9654 3.45333 98.8587 3.432C98.7627 3.4 98.704 3.37333 98.6827 3.352L99.0987 0.488C99.1307 0.466666 99.152 0.455999 99.1627 0.455999C99.184 0.445333 99.2267 0.44 99.2907 0.44C99.3867 0.44 99.488 0.466666 99.5947 0.52C99.7014 0.562666 99.8507 0.610666 100.043 0.664C100.245 0.706666 100.533 0.728 100.907 0.728H106.107ZM111.293 0.759999C111.624 0.759999 111.997 0.754666 112.413 0.743999C112.84 0.722666 113.202 0.696 113.501 0.664C113.533 0.706666 113.549 0.802666 113.549 0.952C113.56 1.09067 113.544 1.18667 113.501 1.24C113.437 1.24 113.325 1.25067 113.165 1.272C113.016 1.28267 112.872 1.30933 112.733 1.352C112.605 1.384 112.525 1.43733 112.493 1.512C112.44 1.65067 112.408 1.82667 112.397 2.04C112.386 2.25333 112.381 2.49867 112.381 2.776C112.381 2.808 112.381 2.84533 112.381 2.888C112.381 2.92 112.381 2.952 112.381 2.984V8.728C112.381 8.76 112.381 8.79733 112.381 8.84C112.381 8.872 112.381 8.904 112.381 8.936C112.381 9.21333 112.386 9.45867 112.397 9.672C112.408 9.88533 112.44 10.0613 112.493 10.2C112.525 10.264 112.605 10.3173 112.733 10.36C112.872 10.4027 113.016 10.4347 113.165 10.456C113.325 10.4667 113.437 10.4773 113.501 10.488C113.544 10.5413 113.56 10.6373 113.549 10.776C113.549 10.9147 113.533 11.0107 113.501 11.064C113.202 11.032 112.834 11.0053 112.397 10.984C111.97 10.9627 111.592 10.952 111.261 10.952C110.93 10.952 110.557 10.9627 110.141 10.984C109.725 11.0053 109.362 11.032 109.053 11.064C109.021 11.0107 109 10.9147 108.989 10.776C108.989 10.6373 109.01 10.5413 109.053 10.488C109.128 10.4773 109.24 10.4667 109.389 10.456C109.538 10.4347 109.682 10.4027 109.821 10.36C109.96 10.3173 110.04 10.264 110.061 10.2C110.125 10.04 110.162 9.83733 110.173 9.592C110.184 9.34667 110.189 9.05867 110.189 8.728V2.984C110.189 2.64267 110.184 2.35467 110.173 2.12C110.162 1.87467 110.125 1.672 110.061 1.512C110.04 1.43733 109.96 1.384 109.821 1.352C109.682 1.30933 109.538 1.28267 109.389 1.272C109.24 1.25067 109.128 1.24 109.053 1.24C109.01 1.18667 108.989 1.09067 108.989 0.952C109 0.802666 109.021 0.706666 109.053 0.664C109.362 0.696 109.73 0.722666 110.157 0.743999C110.584 0.754666 110.962 0.759999 111.293 0.759999ZM119.866 0.584C120.559 0.584 121.22 0.722666 121.85 1C122.49 1.26667 123.055 1.64533 123.546 2.136C124.047 2.616 124.442 3.176 124.73 3.816C125.028 4.456 125.178 5.144 125.178 5.88C125.178 6.616 125.028 7.304 124.73 7.944C124.442 8.57333 124.047 9.13333 123.546 9.624C123.055 10.104 122.49 10.4827 121.85 10.76C121.22 11.0267 120.559 11.16 119.866 11.16C119.183 11.16 118.522 11.0267 117.882 10.76C117.242 10.4827 116.671 10.104 116.17 9.624C115.679 9.13333 115.284 8.57333 114.986 7.944C114.698 7.304 114.554 6.616 114.554 5.88C114.554 5.144 114.698 4.456 114.986 3.816C115.284 3.176 115.679 2.616 116.17 2.136C116.671 1.64533 117.242 1.26667 117.882 1C118.522 0.722666 119.183 0.584 119.866 0.584ZM119.498 1.256C119.039 1.256 118.65 1.37867 118.33 1.624C118.02 1.86933 117.77 2.19467 117.578 2.6C117.396 2.99467 117.263 3.432 117.178 3.912C117.092 4.392 117.05 4.86667 117.05 5.336C117.05 5.93333 117.103 6.536 117.21 7.144C117.327 7.74133 117.508 8.296 117.754 8.808C117.999 9.30933 118.319 9.71467 118.714 10.024C119.119 10.3333 119.615 10.488 120.202 10.488C120.671 10.488 121.06 10.3707 121.37 10.136C121.69 9.89067 121.946 9.57067 122.138 9.176C122.33 8.78133 122.468 8.344 122.554 7.864C122.639 7.384 122.682 6.90933 122.682 6.44C122.682 5.84267 122.623 5.24 122.506 4.632C122.399 4.024 122.218 3.464 121.962 2.952C121.716 2.44 121.391 2.02933 120.986 1.72C120.58 1.41067 120.084 1.256 119.498 1.256ZM127.954 0.759999C128.231 0.759999 128.524 0.754666 128.834 0.743999C129.143 0.722666 129.42 0.696 129.666 0.664C129.815 0.962666 130.066 1.35733 130.418 1.848C130.78 2.328 131.196 2.86667 131.666 3.464C132.146 4.05067 132.647 4.65867 133.17 5.288C133.692 5.91733 134.194 6.53067 134.674 7.128C134.695 7.07467 134.706 6.984 134.706 6.856C134.706 6.71733 134.706 6.59467 134.706 6.488V3.56C134.706 3.35733 134.695 3.11733 134.674 2.84C134.663 2.552 134.647 2.28533 134.626 2.04C134.604 1.79467 134.572 1.63467 134.53 1.56C134.487 1.464 134.375 1.39467 134.194 1.352C134.012 1.29867 133.826 1.26667 133.634 1.256C133.452 1.23467 133.33 1.224 133.266 1.224C133.255 1.224 133.239 1.14933 133.218 1C133.207 0.84 133.223 0.722666 133.266 0.648C133.628 0.658666 133.943 0.68 134.21 0.712C134.487 0.743999 134.807 0.759999 135.17 0.759999C135.511 0.759999 135.847 0.743999 136.178 0.712C136.508 0.68 136.828 0.658666 137.138 0.648C137.159 0.690667 137.17 0.781333 137.17 0.919999C137.18 1.048 137.159 1.15467 137.106 1.24C137.063 1.24 136.946 1.24533 136.754 1.256C136.562 1.26667 136.364 1.29867 136.162 1.352C135.97 1.39467 135.852 1.47467 135.81 1.592C135.788 1.66667 135.762 1.82133 135.73 2.056C135.708 2.29067 135.692 2.54667 135.682 2.824C135.671 3.09067 135.666 3.32 135.666 3.512V8.824C135.666 9.28267 135.671 9.66133 135.682 9.96C135.703 10.2587 135.719 10.6107 135.73 11.016C135.708 11.0373 135.639 11.0533 135.522 11.064C135.415 11.0747 135.351 11.08 135.33 11.08C135.255 11.08 135.175 11.048 135.09 10.984C135.015 10.9093 134.935 10.8187 134.85 10.712L128.482 2.888V8.552C128.482 8.82933 128.498 9.12267 128.53 9.432C128.572 9.73067 128.615 9.93867 128.658 10.056C128.7 10.152 128.818 10.232 129.01 10.296C129.202 10.36 129.394 10.408 129.586 10.44C129.778 10.4613 129.895 10.472 129.938 10.472C129.991 10.5467 130.012 10.6533 130.002 10.792C130.002 10.92 129.991 11.0107 129.97 11.064C129.66 11.0427 129.34 11.016 129.01 10.984C128.679 10.952 128.343 10.936 128.002 10.936C127.639 10.936 127.319 10.952 127.042 10.984C126.775 11.016 126.46 11.0427 126.098 11.064C126.055 10.9893 126.039 10.8773 126.05 10.728C126.071 10.568 126.087 10.488 126.098 10.488C126.162 10.488 126.284 10.472 126.466 10.44C126.658 10.408 126.839 10.3653 127.01 10.312C127.191 10.248 127.303 10.168 127.346 10.072C127.399 9.95467 127.442 9.74133 127.474 9.432C127.516 9.112 127.538 8.80267 127.538 8.504V2.968C127.538 2.75467 127.516 2.504 127.474 2.216C127.431 1.928 127.356 1.70933 127.25 1.56C127.207 1.48533 127.111 1.42667 126.962 1.384C126.823 1.34133 126.679 1.30933 126.53 1.288C126.391 1.256 126.29 1.24 126.226 1.24C126.204 1.24 126.183 1.19733 126.162 1.112C126.151 1.02667 126.146 0.935999 126.146 0.839999C126.156 0.743999 126.172 0.685333 126.194 0.664C126.439 0.674666 126.7 0.695999 126.978 0.728C127.266 0.749333 127.591 0.759999 127.954 0.759999ZM138.667 8.904L141.995 1.256C142.049 1.14933 142.134 1.02667 142.251 0.888C142.379 0.738666 142.486 0.664 142.571 0.664C142.753 0.664 142.865 0.695999 142.907 0.759999L146.107 8.68C146.214 8.91467 146.294 9.12267 146.347 9.304C146.401 9.47467 146.465 9.64533 146.539 9.816C146.635 10.0293 146.769 10.184 146.939 10.28C147.121 10.376 147.291 10.4347 147.451 10.456C147.622 10.4773 147.729 10.488 147.771 10.488C147.814 10.5627 147.835 10.6693 147.835 10.808C147.846 10.9467 147.835 11.032 147.803 11.064C147.494 11.0427 147.153 11.016 146.779 10.984C146.406 10.952 146.049 10.936 145.707 10.936C145.473 10.936 145.206 10.9467 144.907 10.968C144.609 10.9787 144.321 10.9947 144.043 11.016C143.777 11.0373 143.547 11.0533 143.355 11.064C143.334 11.032 143.318 10.9733 143.307 10.888C143.297 10.792 143.297 10.7013 143.307 10.616C143.318 10.5307 143.334 10.488 143.355 10.488C143.494 10.488 143.654 10.4667 143.835 10.424C144.027 10.3707 144.177 10.296 144.283 10.2C144.369 10.1253 144.411 10.04 144.411 9.944C144.411 9.912 144.379 9.816 144.315 9.656C144.251 9.48533 144.171 9.28267 144.075 9.048C143.99 8.81333 143.899 8.584 143.803 8.36C143.718 8.12533 143.643 7.93333 143.579 7.784C143.515 7.63467 143.483 7.56 143.483 7.56C143.483 7.56 143.467 7.54933 143.435 7.528C143.414 7.50667 143.393 7.496 143.371 7.496C143.147 7.48533 142.929 7.48 142.715 7.48C142.513 7.48 142.326 7.48 142.155 7.48C142.102 7.48 142.049 7.48 141.995 7.48C141.953 7.48 141.91 7.48 141.867 7.48C141.547 7.48 141.265 7.48 141.019 7.48C140.785 7.48 140.529 7.48533 140.251 7.496C140.209 7.496 140.171 7.52267 140.139 7.576C140.139 7.576 140.102 7.656 140.027 7.816C139.963 7.976 139.889 8.15733 139.803 8.36C139.718 8.56267 139.643 8.73867 139.579 8.888C139.505 9.08 139.425 9.29333 139.339 9.528C139.265 9.76267 139.227 9.90667 139.227 9.96C139.227 10.088 139.318 10.1947 139.499 10.28C139.681 10.3547 139.867 10.408 140.059 10.44C140.262 10.472 140.385 10.488 140.427 10.488C140.481 10.5413 140.502 10.6427 140.491 10.792C140.481 10.9413 140.465 11.032 140.443 11.064C140.177 11.032 139.915 11.0053 139.659 10.984C139.403 10.952 139.105 10.936 138.763 10.936C138.401 10.936 138.091 10.952 137.835 10.984C137.59 11.0053 137.329 11.032 137.051 11.064C137.019 11.032 136.998 10.952 136.987 10.824C136.977 10.696 136.987 10.5893 137.019 10.504C137.083 10.504 137.19 10.4827 137.339 10.44C137.499 10.3867 137.654 10.3227 137.803 10.248C137.963 10.1733 138.07 10.0933 138.123 10.008C138.262 9.79467 138.363 9.61333 138.427 9.464C138.491 9.304 138.571 9.11733 138.667 8.904ZM141.803 3.56L140.475 6.632C140.475 6.632 140.475 6.64267 140.475 6.664C140.486 6.67467 140.497 6.68 140.507 6.68C140.667 6.69067 140.881 6.70133 141.147 6.712C141.414 6.72267 141.633 6.728 141.803 6.728C142.049 6.728 142.257 6.728 142.427 6.728C142.609 6.71733 142.817 6.70667 143.051 6.696C143.073 6.696 143.083 6.68533 143.083 6.664C143.094 6.64267 143.099 6.632 143.099 6.632L141.803 3.56ZM151.662 8.792C151.662 8.792 151.662 8.80267 151.662 8.824C151.662 8.87733 151.662 8.984 151.662 9.144C151.662 9.29333 151.668 9.45333 151.678 9.624C151.7 9.79467 151.732 9.928 151.774 10.024C151.828 10.1307 151.961 10.2107 152.174 10.264C152.388 10.3173 152.596 10.344 152.798 10.344H153.822C154.121 10.344 154.393 10.3013 154.638 10.216C154.894 10.1307 155.108 10.0027 155.278 9.832C155.449 9.66133 155.598 9.45867 155.726 9.224C155.854 8.98933 155.988 8.696 156.126 8.344C156.148 8.28 156.217 8.248 156.334 8.248C156.42 8.248 156.516 8.25867 156.622 8.28C156.729 8.30133 156.793 8.32267 156.814 8.344C156.718 8.62133 156.612 8.92533 156.494 9.256C156.377 9.58667 156.27 9.90667 156.174 10.216C156.078 10.5253 156.009 10.7973 155.966 11.032H150.574C150.02 11.032 149.534 11.032 149.118 11.032C148.702 11.0427 148.441 11.048 148.334 11.048C148.302 10.9947 148.281 10.8987 148.27 10.76C148.27 10.6213 148.292 10.5253 148.334 10.472C148.409 10.4613 148.521 10.4507 148.67 10.44C148.82 10.4187 148.964 10.392 149.102 10.36C149.241 10.3173 149.321 10.264 149.342 10.2C149.406 10.04 149.444 9.83733 149.454 9.592C149.465 9.34667 149.47 9.05867 149.47 8.728V2.984C149.47 2.64267 149.465 2.35467 149.454 2.12C149.444 1.87467 149.406 1.672 149.342 1.512C149.321 1.43733 149.241 1.384 149.102 1.352C148.964 1.30933 148.82 1.28267 148.67 1.272C148.521 1.25067 148.409 1.24 148.334 1.24C148.292 1.18667 148.27 1.09067 148.27 0.952C148.281 0.802666 148.302 0.706666 148.334 0.664C148.644 0.696 149.012 0.722666 149.438 0.743999C149.865 0.754666 150.244 0.759999 150.574 0.759999C150.905 0.759999 151.278 0.754666 151.694 0.743999C152.121 0.722666 152.484 0.696 152.782 0.664C152.814 0.706666 152.83 0.802666 152.83 0.952C152.841 1.09067 152.825 1.18667 152.782 1.24C152.718 1.24 152.606 1.25067 152.446 1.272C152.297 1.28267 152.153 1.30933 152.014 1.352C151.886 1.384 151.806 1.43733 151.774 1.512C151.721 1.65067 151.689 1.82667 151.678 2.04C151.668 2.25333 151.662 2.49867 151.662 2.776C151.662 2.808 151.662 2.84533 151.662 2.888C151.662 2.92 151.662 2.952 151.662 2.984V8.792ZM164.053 0.759999C164.384 0.759999 164.757 0.754666 165.173 0.743999C165.589 0.722666 165.946 0.696 166.245 0.664C166.277 0.706666 166.293 0.802666 166.293 0.952C166.304 1.09067 166.288 1.18667 166.245 1.24C166.181 1.24 166.074 1.25067 165.925 1.272C165.776 1.28267 165.632 1.30933 165.493 1.352C165.365 1.384 165.285 1.43733 165.253 1.512C165.189 1.672 165.152 1.87467 165.141 2.12C165.13 2.35467 165.125 2.64267 165.125 2.984V5.848C165.125 6.37067 165.146 6.84533 165.189 7.272C165.232 7.688 165.338 8.104 165.509 8.52C165.712 8.97867 165.957 9.31467 166.245 9.528C166.544 9.73067 166.842 9.864 167.141 9.928C167.44 9.98133 167.69 10.008 167.893 10.008C168.309 10.008 168.709 9.88 169.093 9.624C169.477 9.35733 169.792 8.94133 170.037 8.376C170.293 7.81067 170.421 7.07467 170.421 6.168V3.512C170.421 3.17067 170.4 2.808 170.357 2.424C170.314 2.04 170.261 1.768 170.197 1.608C170.154 1.50133 170.053 1.42667 169.893 1.384C169.733 1.33067 169.568 1.29333 169.397 1.272C169.226 1.25067 169.104 1.24 169.029 1.24C168.986 1.18667 168.965 1.09067 168.965 0.952C168.976 0.802666 168.997 0.706666 169.029 0.664C169.402 0.696 169.728 0.722666 170.005 0.743999C170.293 0.754666 170.618 0.759999 170.981 0.759999C171.322 0.759999 171.632 0.749333 171.909 0.728C172.186 0.695999 172.485 0.674666 172.805 0.664C172.837 0.706666 172.853 0.802666 172.853 0.952C172.864 1.09067 172.848 1.18667 172.805 1.24C172.741 1.24 172.618 1.25067 172.437 1.272C172.256 1.28267 172.08 1.31467 171.909 1.368C171.749 1.41067 171.648 1.49067 171.605 1.608C171.541 1.768 171.488 2.04 171.445 2.424C171.402 2.79733 171.381 3.15467 171.381 3.496V6.536C171.381 7.592 171.178 8.46133 170.773 9.144C170.378 9.82667 169.856 10.3333 169.205 10.664C168.565 10.984 167.866 11.144 167.109 11.144C166.458 11.144 165.84 11.032 165.253 10.808C164.666 10.584 164.186 10.2373 163.813 9.768C163.514 9.384 163.29 8.91467 163.141 8.36C163.002 7.79467 162.933 7.10667 162.933 6.296V2.984C162.933 2.64267 162.928 2.35467 162.917 2.12C162.906 1.87467 162.869 1.672 162.805 1.512C162.784 1.43733 162.704 1.384 162.565 1.352C162.426 1.30933 162.282 1.28267 162.133 1.272C161.994 1.25067 161.888 1.24 161.813 1.24C161.77 1.18667 161.749 1.09067 161.749 0.952C161.76 0.802666 161.781 0.706666 161.813 0.664C162.122 0.696 162.49 0.722666 162.917 0.743999C163.344 0.754666 163.722 0.759999 164.053 0.759999ZM175.204 0.759999C175.481 0.759999 175.774 0.754666 176.084 0.743999C176.393 0.722666 176.67 0.696 176.916 0.664C177.065 0.962666 177.316 1.35733 177.668 1.848C178.03 2.328 178.446 2.86667 178.916 3.464C179.396 4.05067 179.897 4.65867 180.42 5.288C180.942 5.91733 181.444 6.53067 181.924 7.128C181.945 7.07467 181.956 6.984 181.956 6.856C181.956 6.71733 181.956 6.59467 181.956 6.488V3.56C181.956 3.35733 181.945 3.11733 181.924 2.84C181.913 2.552 181.897 2.28533 181.876 2.04C181.854 1.79467 181.822 1.63467 181.78 1.56C181.737 1.464 181.625 1.39467 181.444 1.352C181.262 1.29867 181.076 1.26667 180.884 1.256C180.702 1.23467 180.58 1.224 180.516 1.224C180.505 1.224 180.489 1.14933 180.468 1C180.457 0.84 180.473 0.722666 180.516 0.648C180.878 0.658666 181.193 0.68 181.46 0.712C181.737 0.743999 182.057 0.759999 182.42 0.759999C182.761 0.759999 183.097 0.743999 183.428 0.712C183.758 0.68 184.078 0.658666 184.388 0.648C184.409 0.690667 184.42 0.781333 184.42 0.919999C184.43 1.048 184.409 1.15467 184.356 1.24C184.313 1.24 184.196 1.24533 184.004 1.256C183.812 1.26667 183.614 1.29867 183.412 1.352C183.22 1.39467 183.102 1.47467 183.06 1.592C183.038 1.66667 183.012 1.82133 182.98 2.056C182.958 2.29067 182.942 2.54667 182.932 2.824C182.921 3.09067 182.916 3.32 182.916 3.512V8.824C182.916 9.28267 182.921 9.66133 182.932 9.96C182.953 10.2587 182.969 10.6107 182.98 11.016C182.958 11.0373 182.889 11.0533 182.772 11.064C182.665 11.0747 182.601 11.08 182.58 11.08C182.505 11.08 182.425 11.048 182.34 10.984C182.265 10.9093 182.185 10.8187 182.1 10.712L175.732 2.888V8.552C175.732 8.82933 175.748 9.12267 175.78 9.432C175.822 9.73067 175.865 9.93867 175.908 10.056C175.95 10.152 176.068 10.232 176.26 10.296C176.452 10.36 176.644 10.408 176.836 10.44C177.028 10.4613 177.145 10.472 177.188 10.472C177.241 10.5467 177.262 10.6533 177.252 10.792C177.252 10.92 177.241 11.0107 177.22 11.064C176.91 11.0427 176.59 11.016 176.26 10.984C175.929 10.952 175.593 10.936 175.252 10.936C174.889 10.936 174.569 10.952 174.292 10.984C174.025 11.016 173.71 11.0427 173.348 11.064C173.305 10.9893 173.289 10.8773 173.3 10.728C173.321 10.568 173.337 10.488 173.348 10.488C173.412 10.488 173.534 10.472 173.716 10.44C173.908 10.408 174.089 10.3653 174.26 10.312C174.441 10.248 174.553 10.168 174.596 10.072C174.649 9.95467 174.692 9.74133 174.724 9.432C174.766 9.112 174.788 8.80267 174.788 8.504V2.968C174.788 2.75467 174.766 2.504 174.724 2.216C174.681 1.928 174.606 1.70933 174.5 1.56C174.457 1.48533 174.361 1.42667 174.212 1.384C174.073 1.34133 173.929 1.30933 173.78 1.288C173.641 1.256 173.54 1.24 173.476 1.24C173.454 1.24 173.433 1.19733 173.412 1.112C173.401 1.02667 173.396 0.935999 173.396 0.839999C173.406 0.743999 173.422 0.685333 173.444 0.664C173.689 0.674666 173.95 0.695999 174.228 0.728C174.516 0.749333 174.841 0.759999 175.204 0.759999ZM187.559 0.759999C187.889 0.759999 188.263 0.754666 188.679 0.743999C189.105 0.722666 189.468 0.696 189.767 0.664C189.799 0.706666 189.815 0.802666 189.815 0.952C189.825 1.09067 189.809 1.18667 189.767 1.24C189.703 1.24 189.591 1.25067 189.431 1.272C189.281 1.28267 189.137 1.30933 188.999 1.352C188.871 1.384 188.791 1.43733 188.759 1.512C188.705 1.65067 188.673 1.82667 188.663 2.04C188.652 2.25333 188.647 2.49867 188.647 2.776C188.647 2.808 188.647 2.84533 188.647 2.888C188.647 2.92 188.647 2.952 188.647 2.984V8.728C188.647 8.76 188.647 8.79733 188.647 8.84C188.647 8.872 188.647 8.904 188.647 8.936C188.647 9.21333 188.652 9.45867 188.663 9.672C188.673 9.88533 188.705 10.0613 188.759 10.2C188.791 10.264 188.871 10.3173 188.999 10.36C189.137 10.4027 189.281 10.4347 189.431 10.456C189.591 10.4667 189.703 10.4773 189.767 10.488C189.809 10.5413 189.825 10.6373 189.815 10.776C189.815 10.9147 189.799 11.0107 189.767 11.064C189.468 11.032 189.1 11.0053 188.663 10.984C188.236 10.9627 187.857 10.952 187.527 10.952C187.196 10.952 186.823 10.9627 186.407 10.984C185.991 11.0053 185.628 11.032 185.319 11.064C185.287 11.0107 185.265 10.9147 185.255 10.776C185.255 10.6373 185.276 10.5413 185.319 10.488C185.393 10.4773 185.505 10.4667 185.655 10.456C185.804 10.4347 185.948 10.4027 186.087 10.36C186.225 10.3173 186.305 10.264 186.327 10.2C186.391 10.04 186.428 9.83733 186.439 9.592C186.449 9.34667 186.455 9.05867 186.455 8.728V2.984C186.455 2.64267 186.449 2.35467 186.439 2.12C186.428 1.87467 186.391 1.672 186.327 1.512C186.305 1.43733 186.225 1.384 186.087 1.352C185.948 1.30933 185.804 1.28267 185.655 1.272C185.505 1.25067 185.393 1.24 185.319 1.24C185.276 1.18667 185.255 1.09067 185.255 0.952C185.265 0.802666 185.287 0.706666 185.319 0.664C185.628 0.696 185.996 0.722666 186.423 0.743999C186.849 0.754666 187.228 0.759999 187.559 0.759999ZM192.528 0.759999C192.859 0.759999 193.232 0.754666 193.648 0.743999C194.075 0.722666 194.437 0.696 194.736 0.664C194.768 0.706666 194.784 0.802666 194.784 0.952C194.795 1.09067 194.779 1.18667 194.736 1.24C194.672 1.24 194.56 1.25067 194.4 1.272C194.251 1.28267 194.107 1.32 193.968 1.384C193.84 1.43733 193.776 1.528 193.776 1.656C193.776 1.784 193.813 1.96 193.888 2.184C193.973 2.39733 194.064 2.61067 194.16 2.824C194.341 3.24 194.533 3.688 194.736 4.168C194.949 4.63733 195.157 5.10667 195.36 5.576C195.573 6.03467 195.76 6.456 195.92 6.84C196.091 7.21333 196.224 7.51733 196.32 7.752C196.427 7.976 196.48 8.088 196.48 8.088C196.48 8.088 196.523 7.97067 196.608 7.736C196.704 7.50133 196.827 7.20267 196.976 6.84C197.125 6.46667 197.285 6.06667 197.456 5.64C197.627 5.21333 197.787 4.80267 197.936 4.408C198.096 4.00267 198.229 3.66133 198.336 3.384C198.453 3.10667 198.523 2.93067 198.544 2.856C198.619 2.65333 198.693 2.44 198.768 2.216C198.853 1.98133 198.896 1.77867 198.896 1.608C198.896 1.512 198.805 1.43733 198.624 1.384C198.443 1.33067 198.251 1.29333 198.048 1.272C197.845 1.25067 197.707 1.24 197.632 1.24C197.589 1.18667 197.568 1.09067 197.568 0.952C197.579 0.802666 197.6 0.706666 197.632 0.664C198.005 0.696 198.32 0.722666 198.576 0.743999C198.832 0.754666 199.141 0.759999 199.504 0.759999C199.845 0.759999 200.139 0.749333 200.384 0.728C200.64 0.695999 200.928 0.674666 201.248 0.664C201.28 0.706666 201.296 0.802666 201.296 0.952C201.307 1.09067 201.291 1.18667 201.248 1.24C201.184 1.24 201.077 1.24533 200.928 1.256C200.779 1.26667 200.629 1.29333 200.48 1.336C200.331 1.368 200.224 1.42667 200.16 1.512C200.043 1.672 199.936 1.864 199.84 2.088C199.744 2.312 199.637 2.552 199.52 2.808C199.2 3.58667 198.907 4.296 198.64 4.936C198.373 5.576 198.112 6.184 197.856 6.76C197.611 7.336 197.36 7.928 197.104 8.536C196.848 9.144 196.571 9.81067 196.272 10.536C196.208 10.6747 196.091 10.8187 195.92 10.968C195.76 11.1067 195.632 11.176 195.536 11.176C195.461 11.176 195.413 11.1493 195.392 11.096C195.381 11.0533 195.355 11.0053 195.312 10.952L191.904 3.032C191.808 2.808 191.712 2.57867 191.616 2.344C191.52 2.10933 191.435 1.912 191.36 1.752C191.296 1.61333 191.189 1.512 191.04 1.448C190.901 1.37333 190.757 1.32 190.608 1.288C190.469 1.256 190.363 1.24 190.288 1.24C190.245 1.18667 190.229 1.09067 190.24 0.952C190.24 0.802666 190.256 0.706666 190.288 0.664C190.597 0.696 190.965 0.722666 191.392 0.743999C191.819 0.754666 192.197 0.759999 192.528 0.759999ZM203.84 0.728C203.968 0.728 204.192 0.728 204.512 0.728C204.842 0.717333 205.216 0.706666 205.632 0.695999C206.058 0.685333 206.49 0.679999 206.928 0.679999C207.365 0.669333 207.76 0.658666 208.112 0.648C208.474 0.637333 208.746 0.632 208.928 0.632C208.981 1.02667 209.05 1.42133 209.136 1.816C209.221 2.21067 209.301 2.584 209.376 2.936C209.354 2.95733 209.301 2.97867 209.216 3C209.13 3.01067 209.061 3.016 209.008 3.016C208.88 3.016 208.8 2.97333 208.768 2.888C208.597 2.45067 208.389 2.08267 208.144 1.784C207.909 1.47467 207.552 1.32 207.072 1.32H205.776C205.605 1.32 205.44 1.33067 205.28 1.352C205.13 1.36267 205.034 1.41067 204.992 1.496C204.96 1.58133 204.938 1.688 204.928 1.816C204.928 1.944 204.928 2.09333 204.928 2.264C204.928 2.296 204.928 2.328 204.928 2.36C204.928 2.392 204.928 2.424 204.928 2.456V5.256C204.928 5.29867 204.997 5.336 205.136 5.368C205.274 5.4 205.429 5.416 205.6 5.416H206.416C206.725 5.416 206.96 5.38933 207.12 5.336C207.29 5.28267 207.424 5.176 207.52 5.016C207.616 4.856 207.706 4.62667 207.792 4.328C207.813 4.24267 207.877 4.2 207.984 4.2C208.122 4.2 208.218 4.22667 208.272 4.28V7.288C208.261 7.29867 208.224 7.30933 208.16 7.32C208.106 7.33067 208.053 7.336 208 7.336C207.861 7.336 207.786 7.29867 207.776 7.224C207.68 6.85067 207.584 6.60533 207.488 6.488C207.392 6.37067 207.306 6.296 207.232 6.264C207.05 6.18933 206.656 6.152 206.048 6.152C205.909 6.152 205.749 6.15733 205.568 6.168C205.397 6.17867 205.248 6.2 205.12 6.232C204.992 6.264 204.928 6.312 204.928 6.376V8.792C204.928 8.792 204.928 8.80267 204.928 8.824C204.928 8.87733 204.928 8.984 204.928 9.144C204.928 9.29333 204.933 9.45333 204.944 9.624C204.965 9.79467 204.997 9.928 205.04 10.024C205.093 10.1307 205.226 10.2107 205.44 10.264C205.653 10.3173 205.861 10.344 206.064 10.344H207.088C207.386 10.344 207.658 10.3013 207.904 10.216C208.16 10.1307 208.373 10.0027 208.544 9.832C208.714 9.66133 208.864 9.45867 208.992 9.224C209.12 8.98933 209.253 8.696 209.392 8.344C209.413 8.28 209.482 8.248 209.6 8.248C209.685 8.248 209.781 8.25867 209.888 8.28C209.994 8.30133 210.058 8.32267 210.08 8.344C209.984 8.62133 209.877 8.92533 209.76 9.256C209.642 9.58667 209.536 9.90667 209.44 10.216C209.344 10.5253 209.274 10.7973 209.232 11.032C209.125 11.032 208.88 11.032 208.496 11.032C208.112 11.032 207.648 11.032 207.104 11.032C206.56 11.032 205.989 11.032 205.392 11.032C204.805 11.032 204.24 11.032 203.696 11.032C203.162 11.032 202.704 11.032 202.32 11.032C201.946 11.0427 201.706 11.048 201.6 11.048C201.568 10.9947 201.546 10.8987 201.536 10.76C201.536 10.6213 201.557 10.5253 201.6 10.472C201.674 10.4613 201.786 10.4507 201.936 10.44C202.085 10.4187 202.229 10.392 202.368 10.36C202.506 10.3173 202.586 10.264 202.608 10.2C202.672 10.04 202.709 9.83733 202.72 9.592C202.73 9.34667 202.736 9.05867 202.736 8.728V2.984C202.736 2.64267 202.73 2.35467 202.72 2.12C202.709 1.87467 202.672 1.672 202.608 1.512C202.586 1.43733 202.506 1.384 202.368 1.352C202.229 1.32 202.085 1.29867 201.936 1.288C201.786 1.27733 201.674 1.272 201.6 1.272C201.557 1.21867 201.536 1.11733 201.536 0.967999C201.546 0.818666 201.568 0.722666 201.6 0.679999C201.952 0.701333 202.33 0.717333 202.736 0.728C203.141 0.728 203.509 0.728 203.84 0.728ZM215.646 0.679999C216.297 0.679999 216.878 0.786666 217.39 1C217.902 1.21333 218.308 1.53333 218.606 1.96C218.905 2.376 219.054 2.89867 219.054 3.528C219.054 3.848 218.98 4.152 218.83 4.44C218.692 4.71733 218.51 4.97333 218.286 5.208C218.062 5.432 217.828 5.61867 217.582 5.768C217.348 5.90667 217.134 6.00267 216.942 6.056C217.326 6.568 217.689 7.048 218.03 7.496C218.372 7.93333 218.649 8.29067 218.862 8.568C219.086 8.83467 219.198 8.968 219.198 8.968C219.582 9.45867 219.966 9.81067 220.35 10.024C220.734 10.2373 221.06 10.3707 221.326 10.424C221.593 10.4667 221.748 10.488 221.79 10.488C221.833 10.5413 221.844 10.648 221.822 10.808C221.812 10.9573 221.801 11.0427 221.79 11.064C221.566 11.0747 221.246 11.0853 220.83 11.096C220.425 11.1173 220.062 11.128 219.742 11.128C219.145 11.128 218.644 11 218.238 10.744C217.844 10.488 217.55 10.2267 217.358 9.96L214.83 6.568C214.83 6.568 214.798 6.53067 214.734 6.456C214.67 6.37067 214.606 6.328 214.542 6.328H214.318V8.728C214.318 8.76 214.318 8.79733 214.318 8.84C214.318 8.872 214.318 8.904 214.318 8.936C214.318 9.21333 214.324 9.45867 214.334 9.672C214.345 9.88533 214.377 10.0613 214.43 10.2C214.462 10.264 214.542 10.3173 214.67 10.36C214.809 10.4027 214.953 10.4347 215.102 10.456C215.262 10.4667 215.374 10.4773 215.438 10.488C215.481 10.5413 215.497 10.6373 215.486 10.776C215.486 10.9147 215.47 11.0107 215.438 11.064C215.14 11.032 214.772 11.0053 214.334 10.984C213.908 10.9627 213.529 10.952 213.198 10.952C212.868 10.952 212.494 10.9627 212.078 10.984C211.662 11.0053 211.3 11.032 210.99 11.064C210.958 11.0107 210.937 10.9147 210.926 10.776C210.926 10.6373 210.948 10.5413 210.99 10.488C211.065 10.4773 211.177 10.4667 211.326 10.456C211.476 10.4347 211.62 10.4027 211.758 10.36C211.897 10.3173 211.977 10.264 211.998 10.2C212.062 10.04 212.1 9.83733 212.11 9.592C212.121 9.34667 212.126 9.05867 212.126 8.728V2.984C212.126 2.64267 212.121 2.35467 212.11 2.12C212.1 1.87467 212.062 1.672 211.998 1.512C211.977 1.43733 211.897 1.384 211.758 1.352C211.62 1.32 211.476 1.29867 211.326 1.288C211.177 1.27733 211.065 1.272 210.99 1.272C210.948 1.21867 210.926 1.11733 210.926 0.967999C210.937 0.818666 210.958 0.722666 210.99 0.679999C211.342 0.701333 211.721 0.717333 212.126 0.728C212.532 0.728 212.9 0.728 213.23 0.728C213.561 0.728 213.929 0.722666 214.334 0.712C214.75 0.690666 215.188 0.679999 215.646 0.679999ZM216.734 3.688C216.734 3.272 216.692 2.888 216.606 2.536C216.521 2.17333 216.366 1.88 216.142 1.656C215.918 1.432 215.593 1.32 215.166 1.32C214.996 1.32 214.83 1.33067 214.67 1.352C214.521 1.36267 214.425 1.41067 214.382 1.496C214.35 1.58133 214.329 1.688 214.318 1.816C214.318 1.944 214.318 2.09333 214.318 2.264C214.318 2.296 214.318 2.328 214.318 2.36C214.318 2.392 214.318 2.424 214.318 2.456V5.72H215.022C215.321 5.72 215.598 5.63467 215.854 5.464C216.121 5.29333 216.334 5.05333 216.494 4.744C216.654 4.43467 216.734 4.08267 216.734 3.688ZM225.387 0.535999C225.856 0.535999 226.288 0.583999 226.683 0.679999C227.088 0.765333 227.531 0.861333 228.011 0.967999C228.054 1.384 228.086 1.8 228.107 2.216C228.139 2.632 228.166 3.08 228.187 3.56C228.144 3.624 228.086 3.656 228.011 3.656C228.011 3.656 228.006 3.656 227.995 3.656C227.952 3.656 227.867 3.656 227.739 3.656C227.622 3.64533 227.558 3.608 227.547 3.544C227.515 3.32 227.446 3.07467 227.339 2.808C227.232 2.54133 227.088 2.28533 226.907 2.04C226.726 1.79467 226.512 1.592 226.267 1.432C226.032 1.272 225.766 1.192 225.467 1.192C225.264 1.192 225.062 1.23467 224.859 1.32C224.656 1.39467 224.486 1.53333 224.347 1.736C224.208 1.928 224.139 2.2 224.139 2.552C224.139 2.872 224.262 3.18667 224.507 3.496C224.752 3.79467 225.046 4.07733 225.387 4.344C225.739 4.6 226.075 4.83467 226.395 5.048C226.736 5.272 227.083 5.51733 227.435 5.784C227.798 6.04 228.096 6.36533 228.331 6.76C228.576 7.144 228.699 7.64533 228.699 8.264C228.699 8.82933 228.534 9.33067 228.203 9.768C227.872 10.2053 227.446 10.5467 226.923 10.792C226.411 11.0373 225.867 11.16 225.291 11.16C224.832 11.16 224.336 11.1173 223.803 11.032C223.28 10.9467 222.784 10.8507 222.315 10.744C222.262 10.5093 222.208 10.2107 222.155 9.848C222.102 9.48533 222.054 9.13867 222.011 8.808C221.979 8.46667 221.958 8.22667 221.947 8.088C221.979 8.03467 222.048 7.98667 222.155 7.944C222.272 7.90133 222.352 7.88 222.395 7.88C222.523 7.88 222.592 7.91733 222.603 7.992C222.635 8.20533 222.72 8.456 222.859 8.744C222.998 9.02133 223.174 9.29867 223.387 9.576C223.611 9.84267 223.867 10.0667 224.155 10.248C224.454 10.4187 224.779 10.504 225.131 10.504C225.536 10.504 225.888 10.392 226.187 10.168C226.496 9.93333 226.651 9.53867 226.651 8.984C226.651 8.70667 226.566 8.44533 226.395 8.2C226.235 7.944 226.032 7.70933 225.787 7.496C225.542 7.28267 225.286 7.08533 225.019 6.904C224.752 6.72267 224.523 6.568 224.331 6.44C223.958 6.184 223.595 5.92267 223.243 5.656C222.891 5.38933 222.603 5.07467 222.379 4.712C222.166 4.34933 222.059 3.896 222.059 3.352C222.059 2.808 222.224 2.328 222.555 1.912C222.886 1.48533 223.307 1.14933 223.819 0.903999C224.331 0.658666 224.854 0.535999 225.387 0.535999ZM232.168 0.759999C232.499 0.759999 232.872 0.754666 233.288 0.743999C233.715 0.722666 234.077 0.696 234.376 0.664C234.408 0.706666 234.424 0.802666 234.424 0.952C234.435 1.09067 234.419 1.18667 234.376 1.24C234.312 1.24 234.2 1.25067 234.04 1.272C233.891 1.28267 233.747 1.30933 233.608 1.352C233.48 1.384 233.4 1.43733 233.368 1.512C233.315 1.65067 233.283 1.82667 233.272 2.04C233.261 2.25333 233.256 2.49867 233.256 2.776C233.256 2.808 233.256 2.84533 233.256 2.888C233.256 2.92 233.256 2.952 233.256 2.984V8.728C233.256 8.76 233.256 8.79733 233.256 8.84C233.256 8.872 233.256 8.904 233.256 8.936C233.256 9.21333 233.261 9.45867 233.272 9.672C233.283 9.88533 233.315 10.0613 233.368 10.2C233.4 10.264 233.48 10.3173 233.608 10.36C233.747 10.4027 233.891 10.4347 234.04 10.456C234.2 10.4667 234.312 10.4773 234.376 10.488C234.419 10.5413 234.435 10.6373 234.424 10.776C234.424 10.9147 234.408 11.0107 234.376 11.064C234.077 11.032 233.709 11.0053 233.272 10.984C232.845 10.9627 232.467 10.952 232.136 10.952C231.805 10.952 231.432 10.9627 231.016 10.984C230.6 11.0053 230.237 11.032 229.928 11.064C229.896 11.0107 229.875 10.9147 229.864 10.776C229.864 10.6373 229.885 10.5413 229.928 10.488C230.003 10.4773 230.115 10.4667 230.264 10.456C230.413 10.4347 230.557 10.4027 230.696 10.36C230.835 10.3173 230.915 10.264 230.936 10.2C231 10.04 231.037 9.83733 231.048 9.592C231.059 9.34667 231.064 9.05867 231.064 8.728V2.984C231.064 2.64267 231.059 2.35467 231.048 2.12C231.037 1.87467 231 1.672 230.936 1.512C230.915 1.43733 230.835 1.384 230.696 1.352C230.557 1.30933 230.413 1.28267 230.264 1.272C230.115 1.25067 230.003 1.24 229.928 1.24C229.885 1.18667 229.864 1.09067 229.864 0.952C229.875 0.802666 229.896 0.706666 229.928 0.664C230.237 0.696 230.605 0.722666 231.032 0.743999C231.459 0.754666 231.837 0.759999 232.168 0.759999ZM242.497 0.728C242.871 0.728 243.153 0.706666 243.345 0.664C243.548 0.610666 243.703 0.562666 243.809 0.52C243.916 0.466666 244.017 0.44 244.113 0.44C244.177 0.44 244.215 0.445333 244.225 0.455999C244.247 0.455999 244.273 0.466666 244.305 0.488L244.721 3.352C244.7 3.37333 244.636 3.4 244.529 3.432C244.433 3.45333 244.348 3.464 244.273 3.464C244.177 3.464 244.124 3.43733 244.113 3.384C244.06 3.04267 243.953 2.72267 243.793 2.424C243.633 2.12533 243.436 1.88533 243.201 1.704C242.967 1.512 242.716 1.416 242.449 1.416H240.993V8.728C240.993 9.05867 240.999 9.34667 241.009 9.592C241.02 9.83733 241.057 10.04 241.121 10.2C241.153 10.264 241.233 10.3173 241.361 10.36C241.5 10.4027 241.644 10.4347 241.793 10.456C241.943 10.4667 242.049 10.4773 242.113 10.488C242.156 10.5413 242.172 10.6373 242.161 10.776C242.161 10.9147 242.145 11.0107 242.113 11.064C241.815 11.032 241.452 11.0053 241.025 10.984C240.599 10.9627 240.22 10.952 239.889 10.952C239.559 10.952 239.185 10.9627 238.769 10.984C238.353 11.0053 237.991 11.032 237.681 11.064C237.649 11.0107 237.628 10.9147 237.617 10.776C237.617 10.6373 237.639 10.5413 237.681 10.488C237.756 10.4773 237.863 10.4667 238.001 10.456C238.151 10.4347 238.295 10.4027 238.433 10.36C238.572 10.3173 238.652 10.264 238.673 10.2C238.737 10.04 238.775 9.83733 238.785 9.592C238.796 9.34667 238.801 9.05867 238.801 8.728V1.416H237.345C237.079 1.416 236.828 1.512 236.593 1.704C236.359 1.88533 236.161 2.12533 236.001 2.424C235.841 2.72267 235.735 3.04267 235.681 3.384C235.671 3.43733 235.617 3.464 235.521 3.464C235.447 3.464 235.356 3.45333 235.249 3.432C235.153 3.4 235.095 3.37333 235.073 3.352L235.489 0.488C235.521 0.466666 235.543 0.455999 235.553 0.455999C235.575 0.445333 235.617 0.44 235.681 0.44C235.777 0.44 235.879 0.466666 235.985 0.52C236.092 0.562666 236.241 0.610666 236.433 0.664C236.636 0.706666 236.924 0.728 237.297 0.728H242.497ZM248.5 8.728V6.568C248.5 6.48267 248.468 6.376 248.404 6.248C248.318 6.07733 248.196 5.848 248.036 5.56C247.886 5.26133 247.721 4.94667 247.54 4.616C247.358 4.27467 247.182 3.95467 247.012 3.656C246.852 3.34667 246.718 3.096 246.612 2.904C246.505 2.712 246.452 2.616 246.452 2.616C246.334 2.40267 246.249 2.248 246.196 2.152C246.142 2.04533 246.068 1.912 245.972 1.752C245.854 1.56 245.673 1.432 245.428 1.368C245.182 1.29333 245.006 1.25067 244.9 1.24C244.857 1.18667 244.841 1.09067 244.852 0.952C244.852 0.802666 244.868 0.706666 244.9 0.664C245.209 0.696 245.577 0.722666 246.004 0.743999C246.43 0.754666 246.809 0.759999 247.14 0.759999C247.47 0.759999 247.844 0.754666 248.26 0.743999C248.686 0.722666 249.049 0.696 249.348 0.664C249.38 0.706666 249.396 0.802666 249.396 0.952C249.406 1.09067 249.39 1.18667 249.348 1.24C249.284 1.24 249.172 1.25067 249.012 1.272C248.862 1.28267 248.718 1.32 248.58 1.384C248.452 1.43733 248.388 1.528 248.388 1.656C248.388 1.688 248.398 1.72533 248.42 1.768C248.441 1.81067 248.468 1.85867 248.5 1.912L250.372 5.352C250.393 5.37333 250.473 5.272 250.612 5.048C250.75 4.81333 250.921 4.52 251.124 4.168C251.337 3.80533 251.55 3.42667 251.764 3.032C251.977 2.63733 252.169 2.28533 252.34 1.976C252.372 1.912 252.393 1.848 252.404 1.784C252.414 1.72 252.42 1.66133 252.42 1.608C252.42 1.512 252.334 1.43733 252.164 1.384C252.004 1.33067 251.833 1.29333 251.652 1.272C251.47 1.25067 251.342 1.24 251.268 1.24C251.225 1.18667 251.204 1.09067 251.204 0.952C251.214 0.802666 251.236 0.706666 251.268 0.664C251.641 0.696 251.934 0.722666 252.148 0.743999C252.372 0.754666 252.665 0.759999 253.028 0.759999C253.369 0.759999 253.662 0.749333 253.908 0.728C254.164 0.695999 254.452 0.674666 254.772 0.664C254.804 0.706666 254.82 0.802666 254.82 0.952C254.83 1.09067 254.814 1.18667 254.772 1.24C254.708 1.24 254.596 1.25067 254.436 1.272C254.286 1.28267 254.132 1.31467 253.972 1.368C253.822 1.42133 253.705 1.50667 253.62 1.624C253.556 1.72 253.433 1.912 253.252 2.2C253.07 2.488 252.857 2.82933 252.612 3.224C252.377 3.608 252.132 4.008 251.876 4.424C251.63 4.82933 251.406 5.208 251.204 5.56C251.001 5.90133 250.857 6.16267 250.772 6.344C250.718 6.472 250.692 6.57333 250.692 6.648V8.728C250.692 8.76 250.692 8.79733 250.692 8.84C250.692 8.872 250.692 8.904 250.692 8.936C250.692 9.21333 250.697 9.45867 250.708 9.672C250.718 9.88533 250.75 10.0613 250.804 10.2C250.836 10.264 250.916 10.3173 251.044 10.36C251.182 10.4027 251.326 10.4347 251.476 10.456C251.636 10.4667 251.748 10.4773 251.812 10.488C251.854 10.5413 251.87 10.6373 251.86 10.776C251.86 10.9147 251.844 11.0107 251.812 11.064C251.513 11.032 251.145 11.0053 250.708 10.984C250.281 10.9627 249.902 10.952 249.572 10.952C249.241 10.952 248.868 10.9627 248.452 10.984C248.046 11.0053 247.689 11.032 247.38 11.064C247.348 11.0107 247.326 10.9147 247.316 10.776C247.316 10.6373 247.337 10.5413 247.38 10.488C247.454 10.4773 247.561 10.4667 247.7 10.456C247.849 10.4347 247.993 10.4027 248.132 10.36C248.27 10.3173 248.35 10.264 248.372 10.2C248.436 10.04 248.473 9.83733 248.484 9.592C248.494 9.34667 248.5 9.05867 248.5 8.728Z" fill="white"/>
</svg>
